<svg width="22" height="24" xmlns="http://www.w3.org/2000/svg" xmlns:xlink="http://www.w3.org/1999/xlink"><defs><path d="M12.432 26.25c-1.956 0-3.814-.789-5.234-2.22-2.82-2.846-2.935-7.358-.258-10.06l8.722-8.798a4.816 4.816 0 0 1 3.45-1.422c1.409 0 2.748.567 3.77 1.598 2.031 2.05 2.11 5.307.172 7.261l-8.733 8.798a2.99 2.99 0 0 1-2.144.885 3.228 3.228 0 0 1-2.303-.972c-1.243-1.256-1.282-3.259-.086-4.467l8.06-8.117a1.177 1.177 0 0 1 1.669-.005c.462.462.464 1.211.004 1.674l-8.059 8.12c-.283.286-.244.791.088 1.125a.896.896 0 0 0 .627.274c.13 0 .316-.032.47-.187l8.732-8.798c1.024-1.033.947-2.792-.172-3.922-1.071-1.08-2.889-1.165-3.871-.175l-8.722 8.799c-1.764 1.78-1.648 4.795.26 6.719.972.982 2.235 1.522 3.558 1.522 1.182 0 2.278-.448 3.083-1.26l8.723-8.8a1.178 1.178 0 0 1 1.67-.004c.461.462.464 1.21.004 1.675L17.19 24.29c-1.252 1.263-2.942 1.959-4.758 1.959" id="a"/></defs><use fill="#E62612" xlink:href="#a" transform="translate(-5 -3)" fill-rule="evenodd"/></svg>