<?xml version="1.0" encoding="UTF-8"?>
<svg width="16px" height="16px" viewBox="0 0 16 16" version="1.1" xmlns="http://www.w3.org/2000/svg" xmlns:xlink="http://www.w3.org/1999/xlink">
    <title>noun_date_3809761</title>
    <defs>
        <filter id="filter-1">
            <feColorMatrix in="SourceGraphic" type="matrix" values="0 0 0 0 1.000000 0 0 0 0 1.000000 0 0 0 0 1.000000 0 0 0 1.000000 0"></feColorMatrix>
        </filter>
    </defs>
    <g id="Desktop-&amp;-Mobile" stroke="none" stroke-width="1" fill="none" fill-rule="evenodd">
        <g id="D---18----Validation-inscription" transform="translate(-216.000000, -495.000000)">
            <g id="Group-29" transform="translate(65.000000, 370.000000)">
                <g id="Group-27" transform="translate(0.000000, 125.000000)">
                    <g id="noun_date_3809761" transform="translate(151.000000, 0.000000)" filter="url(#filter-1)">
                        <g>
                            <path d="M14.5010526,1.68421053 L13.4736842,1.68421053 L13.4736842,1.26315789 C13.4736842,0.565535053 12.9081492,0 12.2105263,0 C11.5129035,0 10.9473684,0.565535053 10.9473684,1.26315789 L10.9473684,1.68421053 L9.26315789,1.68421053 L9.26315789,1.26315789 C9.26315789,0.565535053 8.69762284,0 8,0 C7.30237716,0 6.73684211,0.565535053 6.73684211,1.26315789 L6.73684211,1.68421053 L5.05263158,1.68421053 L5.05263158,1.26315789 C5.05263158,0.565535053 4.48709653,0 3.78947368,0 C3.09185084,0 2.52631579,0.565535053 2.52631579,1.26315789 L2.52631579,1.68421053 L1.49894737,1.68421053 C0.671678353,1.68560129 0.00139076061,2.35588888 0,3.18315789 L0,14.5010526 C0.00139076061,15.3283216 0.671678353,15.9986092 1.49894737,16 L14.5010526,16 C15.3283216,15.9986092 15.9986092,15.3283216 16,14.5010526 L16,3.18315789 C15.9986092,2.35588888 15.3283216,1.68560129 14.5010526,1.68421053 Z M11.7894737,1.26315789 C11.7894737,1.03061695 11.9779854,0.842105263 12.2105263,0.842105263 C12.4430673,0.842105263 12.6315789,1.03061695 12.6315789,1.26315789 L12.6315789,2.94736842 C12.6315789,3.17990937 12.4430673,3.36842105 12.2105263,3.36842105 C11.9779854,3.36842105 11.7894737,3.17990937 11.7894737,2.94736842 L11.7894737,1.26315789 Z M7.57894737,1.26315789 C7.57894737,1.03061695 7.76745905,0.842105263 8,0.842105263 C8.23254095,0.842105263 8.42105263,1.03061695 8.42105263,1.26315789 L8.42105263,2.94736842 C8.42105263,3.17990937 8.23254095,3.36842105 8,3.36842105 C7.76745905,3.36842105 7.57894737,3.17990937 7.57894737,2.94736842 L7.57894737,1.26315789 Z M3.36842105,1.26315789 C3.36842105,1.03061695 3.55693274,0.842105263 3.78947368,0.842105263 C4.02201463,0.842105263 4.21052632,1.03061695 4.21052632,1.26315789 L4.21052632,2.94736842 C4.21052632,3.17990937 4.02201463,3.36842105 3.78947368,3.36842105 C3.55693274,3.36842105 3.36842105,3.17990937 3.36842105,2.94736842 L3.36842105,1.26315789 Z M1.49894737,2.52631579 L2.52631579,2.52631579 L2.52631579,2.94736842 C2.5263158,3.64499125 3.09185085,4.21052629 3.78947368,4.21052629 C4.48709652,4.21052629 5.05263156,3.64499125 5.05263158,2.94736842 L5.05263158,2.52631579 L6.73684211,2.52631579 L6.73684211,2.94736842 C6.73684211,3.64499126 7.30237716,4.21052632 8,4.21052632 C8.69762284,4.21052632 9.26315789,3.64499126 9.26315789,2.94736842 L9.26315789,2.52631579 L10.9473684,2.52631579 L10.9473684,2.94736842 C10.9473684,3.64499126 11.5129035,4.21052632 12.2105263,4.21052632 C12.9081492,4.21052632 13.4736842,3.64499126 13.4736842,2.94736842 L13.4736842,2.52631579 L14.5010526,2.52631579 C14.6758097,2.52449525 14.8439399,2.5931133 14.9675186,2.71669194 C15.0910972,2.84027058 15.1597153,3.00840079 15.1579301,3.18315789 L15.1579301,5.05263158 L0.84206994,5.05263158 L0.84206994,3.18315789 C0.840284728,3.00840079 0.908902774,2.84027058 1.03248141,2.71669194 C1.15606005,2.5931133 1.32419026,2.52449525 1.49894737,2.52631579 L1.49894737,2.52631579 Z M14.5010526,15.1579301 L1.49894737,15.1579301 C1.32419026,15.1597153 1.15606005,15.0910972 1.03248141,14.9675186 C0.908902774,14.8439399 0.840284728,14.6758097 0.84206994,14.5010526 L0.84206994,5.89473684 L15.1579301,5.89473684 L15.1579301,14.5010526 C15.1597153,14.6758097 15.0910972,14.8439399 14.9675186,14.9675186 C14.8439399,15.0910972 14.6758097,15.1597153 14.5010526,15.1579301 Z" id="Shape" fill="#000000" fill-rule="nonzero"></path>
                        </g>
                    </g>
                </g>
            </g>
        </g>
    </g>
</svg>