<?xml version="1.0" encoding="UTF-8"?>
<svg width="22px" height="22px" viewBox="0 0 22 22" version="1.1" xmlns="http://www.w3.org/2000/svg" xmlns:xlink="http://www.w3.org/1999/xlink">
    <title>noun_chat_3605381</title>
    <defs>
        <filter id="filter-1">
            <feColorMatrix in="SourceGraphic" type="matrix" values="0 0 0 0 0.901961 0 0 0 0 0.149020 0 0 0 0 0.070588 0 0 0 1.000000 0"></feColorMatrix>
        </filter>
    </defs>
    <g id="Desktop" stroke="none" stroke-width="1" fill="none" fill-rule="evenodd">
        <g id="D---01---Accueil" transform="translate(-1109.000000, -664.000000)">
            <g id="chat-button" transform="translate(1067.000000, 650.000000)">
                <g id="noun_chat_3605381" transform="translate(42.000000, 14.000000)" filter="url(#filter-1)">
                    <g id="Shape-2" fill="#FFFFFF">
                        <path d="M11,1.29411765 C5.63958353,1.29411765 1.29411765,5.63958353 1.29411765,11 C1.29411765,12.7457647 1.75446118,14.3821765 2.55993294,15.7962588 C2.73339647,16.1007647 2.78685647,16.4721765 2.68064824,16.8261176 L1.61213412,20.3879176 L5.17384353,19.3193647 C5.52787529,19.2131176 5.89918353,19.2665647 6.20374118,19.4401059 C7.61788824,20.2455647 9.25423529,20.7058824 11,20.7058824 C16.3603647,20.7058824 20.7058824,16.3603647 20.7058824,11 C20.7058824,5.63958353 16.3603647,1.29411765 11,1.29411765 Z M0,11 C0,4.92486824 4.92486824,0 11,0 C17.0751059,0 22,4.92486824 22,11 C22,17.0751059 17.0751059,22 11,22 C9.02375294,22 7.16740588,21.4782118 5.56324353,20.5645647 C5.55263176,20.5584824 5.54618706,20.559 5.54512588,20.5591294 C5.54502235,20.5591294 5.54497059,20.5591294 5.54497059,20.5591294 L1.98398588,21.6274235 C0.996832941,21.9235176 0.0764435294,21.0031412 0.372589412,20.0159882 L1.44093529,16.4548353 C1.44103882,16.4538 1.44147882,16.4473294 1.43542235,16.4367176 C0.521736471,14.8325294 0,12.9762471 0,11 Z M7.11764706,9.05882353 C7.11764706,8.70151765 7.40734824,8.41176471 7.76470588,8.41176471 L10.3529412,8.41176471 C10.7102471,8.41176471 11,8.70151765 11,9.05882353 C11,9.41612941 10.7102471,9.70588235 10.3529412,9.70588235 L7.76470588,9.70588235 C7.40734824,9.70588235 7.11764706,9.41612941 7.11764706,9.05882353 Z M7.11764706,12.2941176 C7.11764706,11.9368118 7.40734824,11.6470588 7.76470588,11.6470588 L14.2352941,11.6470588 C14.5926,11.6470588 14.8823529,11.9368118 14.8823529,12.2941176 C14.8823529,12.6514235 14.5926,12.9411765 14.2352941,12.9411765 L7.76470588,12.9411765 C7.40734824,12.9411765 7.11764706,12.6514235 7.11764706,12.2941176 Z" id="Shape"></path>
                    </g>
                </g>
            </g>
        </g>
    </g>
</svg>