<?xml version="1.0" encoding="UTF-8"?>
<svg width="8px" height="8px" viewBox="0 0 8 8" version="1.1" xmlns="http://www.w3.org/2000/svg" xmlns:xlink="http://www.w3.org/1999/xlink">
    <title>Oval</title>
    <g id="Desktop" stroke="none" stroke-width="1" fill="none" fill-rule="evenodd">
        <g id="D---12---Expertises" transform="translate(-523.000000, -1902.000000)" fill="#E62612" fill-rule="nonzero">
            <g id="Group-4" transform="translate(0.000000, 1431.000000)">
                <g id="Group-53" transform="translate(65.000000, 150.000000)">
                    <g id="Group-50" transform="translate(458.000000, 56.000000)">
                        <g id="Group-49" transform="translate(0.000000, 254.000000)">
                            <g id="Group-34" transform="translate(0.000000, 11.000000)">
                                <path d="M4,0 C6.209139,0 8,1.790861 8,4 C8,6.209139 6.209139,8 4,8 C1.790861,8 0,6.209139 0,4 C0,1.790861 1.790861,0 4,0 Z M4,1 C2.34314575,1 1,2.34314575 1,4 C1,5.65685425 2.34314575,7 4,7 C5.65685425,7 7,5.65685425 7,4 C7,2.34314575 5.65685425,1 4,1 Z" id="Oval"></path>
                            </g>
                        </g>
                    </g>
                </g>
            </g>
        </g>
    </g>
</svg>