<?xml version="1.0" encoding="UTF-8"?>
<svg width="31px" height="26px" viewBox="0 0 31 26" version="1.1" xmlns="http://www.w3.org/2000/svg" xmlns:xlink="http://www.w3.org/1999/xlink">
    <title>Shape</title>
    <defs>
        <filter id="filter-1">
            <feColorMatrix in="SourceGraphic" type="matrix" values="0 0 0 0 0.941203 0 0 0 0 0.000000 0 0 0 0 0.000227 0 0 0 1.000000 0"></feColorMatrix>
        </filter>
    </defs>
    <g id="Desktop" stroke="none" stroke-width="1" fill="none" fill-rule="evenodd">
        <g id="D---13---Contact" transform="translate(-405.000000, -744.000000)">
            <g id="Group-12" transform="translate(345.000000, 690.000000)">
                <g id="noun_partners_1172130" transform="translate(8.000000, 0.000000)" filter="url(#filter-1)">
                    <g transform="translate(52.000000, 54.000000)">
                        <path d="M30.7422037,6.56565657 L24.4906445,0.196969697 C24.2328482,-0.0656565657 23.8461538,-0.0656565657 23.5883576,0.196969697 L21.3970894,2.42929293 C21.0748441,2.75757576 20.7525988,2.95454545 20.3659044,3.15151515 C20.3659044,3.15151515 20.3659044,3.15151515 20.3659044,3.15151515 L18.9480249,2.75757576 C17.6590437,2.42929293 16.3056133,2.49494949 15.0810811,2.95454545 C14.2432432,3.28282828 13.4698545,3.74242424 12.8253638,4.3989899 C12.5031185,4.26767677 12.1808732,4.2020202 11.9230769,4.13636364 C11.02079,4.00505051 10.1829522,3.54545455 9.53846154,2.88888889 L7.34719335,0.656565657 C7.21829522,0.525252525 7.08939709,0.45959596 6.8960499,0.45959596 C6.7027027,0.45959596 6.57380457,0.525252525 6.44490644,0.656565657 L0.193347193,7.02525253 C-0.0644490644,7.28787879 -0.0644490644,7.68181818 0.193347193,7.94444444 L2.38461538,10.1767677 C3.02910603,10.8333333 3.48024948,11.6868687 3.60914761,12.6060606 C3.73804574,13.3282828 3.995842,14.0505051 4.31808732,14.6414141 L3.54469854,15.5606061 C2.77130977,16.5454545 2.9002079,17.989899 3.86694387,18.7777778 C4.25363825,19.1060606 4.76923077,19.3030303 5.28482328,19.3030303 C5.34927235,19.3030303 5.41372141,19.3030303 5.54261954,19.3030303 C5.60706861,19.8939394 5.86486486,20.4848485 6.38045738,20.8787879 C6.76715177,21.2070707 7.28274428,21.4040404 7.7983368,21.4040404 C7.86278586,21.4040404 7.92723493,21.4040404 8.05613306,21.4040404 C8.12058212,21.9949495 8.37837838,22.5858586 8.89397089,22.979798 C9.28066528,23.3080808 9.7962578,23.5050505 10.3118503,23.5050505 C10.3762994,23.5050505 10.4407484,23.5050505 10.5696466,23.5050505 C10.5696466,23.5050505 10.5696466,23.5050505 10.5696466,23.5050505 C10.6340956,24.0959596 10.8918919,24.6212121 11.4074844,25.0151515 C11.7941788,25.3434343 12.3097713,25.540404 12.8253638,25.540404 C13.3409563,25.540404 13.8565489,25.3434343 14.2432432,25.0151515 L14.5010395,25.2777778 C14.952183,25.7373737 15.5966736,26 16.1767152,26 C16.6923077,26 17.2079002,25.8030303 17.6590437,25.4090909 C18.045738,25.0151515 18.3035343,24.5555556 18.3679834,24.030303 C18.4968815,24.030303 18.6257796,24.0959596 18.7546778,24.0959596 C19.3347193,24.0959596 19.9147609,23.8333333 20.3014553,23.4393939 C20.5592516,23.1767677 20.7525988,22.9141414 20.8170478,22.5858586 C21.2037422,22.8484848 21.6548857,22.979798 22.1060291,22.979798 C22.6860707,22.979798 23.2661123,22.7828283 23.6528067,22.3232323 C24.1039501,21.8636364 24.2972973,21.2727273 24.2972973,20.6818182 C24.2972973,20.6818182 24.2972973,20.6818182 24.3617464,20.6818182 C24.8773389,20.6818182 25.3929314,20.4848485 25.8440748,20.0909091 C26.2952183,19.6969697 26.5530146,19.1060606 26.5530146,18.4494949 C26.5530146,17.8585859 26.3596674,17.2020202 25.9085239,16.8080808 L25.2640333,16.1515152 L25.972973,15.4292929 C26.8108108,14.5757576 27.3908524,13.459596 27.5841996,12.2777778 C27.7130977,11.3585859 28.1642412,10.5050505 28.8087318,9.84848485 L31,7.61616162 C31,7.22222222 31,6.82828283 30.7422037,6.56565657 Z M4.7047817,17.7929293 C4.31808732,17.4646465 4.25363825,16.8737374 4.57588358,16.479798 L6.50935551,14.1161616 C6.7027027,13.9191919 6.96049896,13.7878788 7.21829522,13.7878788 C7.41164241,13.7878788 7.66943867,13.8535354 7.7983368,13.9848485 C8.18503119,14.3131313 8.24948025,14.9040404 7.92723493,15.2979798 L5.99376299,17.6616162 C5.73596674,18.0555556 5.09147609,18.1212121 4.7047817,17.7929293 Z M7.15384615,19.8282828 C6.76715177,19.5 6.7027027,18.9090909 7.02494802,18.5151515 L8.95841996,16.1515152 C8.95841996,16.1515152 8.95841996,16.1515152 8.95841996,16.1515152 L9.98960499,14.9040404 C10.1829522,14.7070707 10.4407484,14.5757576 10.6985447,14.5757576 C10.8918919,14.5757576 11.1496881,14.6414141 11.2785863,14.7727273 C11.4719335,14.9040404 11.6008316,15.1666667 11.6008316,15.4292929 C11.6008316,15.6919192 11.5363825,15.9545455 11.4074844,16.1515152 L11.0852391,16.5454545 C11.0852391,16.5454545 11.0852391,16.5454545 11.0852391,16.5454545 L8.50727651,19.7626263 C8.18503119,20.0909091 7.54054054,20.1565657 7.15384615,19.8282828 Z M9.6029106,21.9292929 C9.40956341,21.7979798 9.28066528,21.5353535 9.28066528,21.2727273 C9.28066528,21.010101 9.34511435,20.7474747 9.47401247,20.5505051 L12.0519751,17.3333333 C12.2453222,17.1363636 12.5031185,17.0050505 12.7609148,17.0050505 C12.954262,17.0050505 13.2120582,17.0707071 13.3409563,17.2020202 C13.5343035,17.3333333 13.6632017,17.5959596 13.6632017,17.8585859 C13.6632017,18.1212121 13.5987526,18.3838384 13.4698545,18.5808081 L10.8918919,21.7979798 C10.6340956,22.1262626 9.98960499,22.1919192 9.6029106,21.9292929 Z M12.0519751,23.9646465 C11.8586279,23.8333333 11.7297297,23.5707071 11.7297297,23.3080808 C11.7297297,23.0454545 11.7941788,22.7828283 11.9230769,22.5858586 L13.8565489,20.2222222 C14.049896,20.0252525 14.3076923,19.8939394 14.5654886,19.8939394 C14.7588358,19.8939394 15.016632,19.959596 15.1455301,20.0909091 C15.3388773,20.2222222 15.4677755,20.4848485 15.4677755,20.7474747 C15.4677755,21.010101 15.4033264,21.2727273 15.2744283,21.469697 L13.3409563,23.8333333 C13.0831601,24.2272727 12.4386694,24.2929293 12.0519751,23.9646465 Z M16.5634096,24.3585859 C16.1767152,24.6868687 15.5966736,24.6212121 15.2099792,24.2272727 L14.952183,23.9646465 L16.1122661,22.4545455 L16.6278586,22.979798 C16.8212058,23.1767677 16.8856549,23.4393939 16.8856549,23.7020202 C16.8856549,23.8989899 16.7567568,24.1616162 16.5634096,24.3585859 Z M24.8128898,18.9747475 C24.4261954,19.3030303 23.8461538,19.2373737 23.4594595,18.8434343 L16.8212058,12.1464646 C16.5634096,11.8838384 16.1767152,11.8838384 15.9189189,12.1464646 C15.6611227,12.4090909 15.6611227,12.8030303 15.9189189,13.0656566 L22.5571726,19.8282828 C22.5571726,19.8282828 22.5571726,19.8282828 22.5571726,19.8282828 L22.6216216,19.8939394 C23.008316,20.2878788 23.008316,20.8787879 22.6216216,21.2727273 C22.2349272,21.6666667 21.6548857,21.6666667 21.2681913,21.2727273 L18.7546778,18.7121212 L14.5654886,14.4444444 C14.3076923,14.1818182 13.9209979,14.1818182 13.6632017,14.4444444 C13.6632017,14.4444444 13.6632017,14.4444444 13.6632017,14.4444444 C13.6632017,14.4444444 13.6632017,14.4444444 13.6632017,14.4444444 C13.4054054,14.7070707 13.4054054,15.1010101 13.6632017,15.3636364 L17.8523909,19.6313131 L19.2702703,21.0757576 C19.4636175,21.2727273 19.5280665,21.469697 19.5280665,21.7323232 C19.5280665,21.9949495 19.3991684,22.2575758 19.2702703,22.3888889 C18.8835759,22.7828283 18.3035343,22.7828283 17.9168399,22.3888889 L16.7567568,21.2070707 C16.8212058,21.010101 16.8212058,20.8131313 16.8212058,20.5505051 C16.7567568,19.959596 16.4989605,19.4343434 15.983368,19.040404 C15.6611227,18.7777778 15.3388773,18.6464646 14.952183,18.5808081 C15.016632,18.3181818 15.0810811,17.989899 15.016632,17.7272727 C14.952183,17.1363636 14.6943867,16.6111111 14.1787942,16.2171717 C13.7920998,15.8888889 13.3409563,15.7575758 12.8898129,15.6919192 C12.8898129,15.5606061 12.8898129,15.4292929 12.8898129,15.2979798 C12.8253638,14.7070707 12.5675676,14.1818182 12.0519751,13.7878788 C11.6652807,13.459596 11.1496881,13.2626263 10.6340956,13.2626263 C10.1185031,13.2626263 9.6029106,13.459596 9.21621622,13.7878788 C9.08731809,13.459596 8.89397089,13.1969697 8.63617464,12.9343434 C8.24948025,12.6060606 7.73388773,12.4090909 7.21829522,12.4090909 C6.57380457,12.4090909 5.92931393,12.7373737 5.47817048,13.2626263 L5.22037422,13.5909091 C5.02702703,13.1969697 4.96257796,12.8030303 4.8981289,12.4090909 C4.7047817,11.2272727 4.12474012,10.1111111 3.28690229,9.25757576 L1.54677755,7.48484848 L6.8960499,2.03535354 L8.63617464,3.80808081 C9.47401247,4.66161616 10.5696466,5.25252525 11.7297297,5.44949495 C11.7297297,5.44949495 11.7297297,5.44949495 11.7297297,5.44949495 L9.15176715,7.87878788 C8.76507277,8.20707071 8.57172557,8.73232323 8.57172557,9.19191919 C8.57172557,9.71717172 8.76507277,10.1767677 9.08731809,10.5707071 C9.66735967,11.2272727 10.5696466,11.3585859 11.3430353,10.9646465 L14.3721414,9.38888889 C14.8232848,9.19191919 15.2744283,9.06060606 15.7900208,9.19191919 C16.2411642,9.25757576 16.6278586,9.45454545 16.950104,9.78282828 L24.9417879,17.6616162 C25.1351351,17.8585859 25.1995842,18.1212121 25.1995842,18.3838384 C25.1351351,18.5808081 25.006237,18.8434343 24.8128898,18.9747475 Z M27.6486486,8.73232323 C26.8108108,9.58585859 26.2307692,10.7020202 26.037422,11.8838384 C25.9085239,12.8030303 25.4573805,13.6565657 24.8128898,14.3131313 L24.1039501,15.0353535 L17.7234927,8.73232323 C17.2079002,8.20707071 16.6278586,7.94444444 15.9189189,7.81313131 C15.1455301,7.68181818 14.3721414,7.81313131 13.6632017,8.14141414 L10.6340956,9.71717172 C10.3762994,9.84848485 10.1185031,9.78282828 9.92515593,9.58585859 C9.7962578,9.45454545 9.73180873,9.32323232 9.7962578,9.12626263 C9.7962578,8.92929293 9.86070686,8.7979798 9.98960499,8.73232323 L13.7276507,5.25252525 C14.2432432,4.72727273 14.8877339,4.33333333 15.5966736,4.07070707 C16.6278586,3.67676768 17.6590437,3.67676768 18.6902287,3.93939394 L20.1081081,4.33333333 C20.1725572,4.33333333 20.1725572,4.33333333 20.2370062,4.33333333 C20.4303534,4.46464646 20.6237006,4.46464646 20.8170478,4.33333333 C21.3970894,4.07070707 21.9126819,3.67676768 22.3638254,3.21717172 L24.1039501,1.44444444 L29.4532225,6.89393939 L27.6486486,8.73232323 Z" id="Shape" fill="#000000" fill-rule="nonzero"></path>
                    </g>
                </g>
            </g>
        </g>
    </g>
</svg>