<?xml version="1.0" encoding="UTF-8"?>
<svg width="22px" height="30px" viewBox="0 0 22 30" version="1.1" xmlns="http://www.w3.org/2000/svg" xmlns:xlink="http://www.w3.org/1999/xlink">
    <title>noun_Paper_1485617</title>
    <defs>
        <filter id="filter-1">
            <feColorMatrix in="SourceGraphic" type="matrix" values="0 0 0 0 0.862745 0 0 0 0 0.082353 0 0 0 0 0.090196 0 0 0 1.000000 0"></feColorMatrix>
        </filter>
    </defs>
    <g id="Desktop" stroke="none" stroke-width="1" fill="none" fill-rule="evenodd">
        <g id="D---13---Contact" transform="translate(-609.000000, -742.000000)">
            <g id="Group-12" transform="translate(345.000000, 690.000000)">
                <g id="Group-11-Copy" transform="translate(200.000000, 0.000000)">
                    <g id="noun_Paper_1485617" transform="translate(8.000000, 0.000000)" filter="url(#filter-1)">
                        <g transform="translate(56.000000, 52.000000)" id="Group" fill="#000000" fill-rule="nonzero">
                            <path d="M0,0.127828235 L0,0.833710588 L0,29.0690047 L0,29.7748871 L0.6875,29.7748871 L21.3125,29.7748871 L22,29.7748871 L22,29.0690047 L22,7.18665176 L22,6.88885765 L21.7958984,6.67929882 L15.6083984,0.326357647 L15.4150391,0.127828235 L15.125,0.127828235 L0.6875,0.127828235 L0,0.127828235 Z M1.375,1.53959294 L14.4375,1.53959294 L14.4375,7.18665176 L14.4375,7.89253412 L15.125,7.89253412 L20.625,7.89253412 L20.625,28.3631224 L1.375,28.3631224 L1.375,1.53959294 Z M15.8125,2.53224 L19.6582031,6.48076941 L15.8125,6.48076941 L15.8125,2.53224 Z M3.78125,8.95135765 L3.78125,10.3631224 L11.6875,10.3631224 L11.6875,8.95135765 L3.78125,8.95135765 Z M3.78125,12.8337106 L3.78125,14.2454753 L18.21875,14.2454753 L18.21875,12.8337106 L3.78125,12.8337106 Z M3.78125,16.7160635 L3.78125,18.1278282 L18.21875,18.1278282 L18.21875,16.7160635 L3.78125,16.7160635 Z M3.78125,20.5984165 L3.78125,22.0101812 L18.21875,22.0101812 L18.21875,20.5984165 L3.78125,20.5984165 Z M3.78125,24.4807694 L3.78125,25.8925341 L18.21875,25.8925341 L18.21875,24.4807694 L3.78125,24.4807694 Z" id="Shape"></path>
                        </g>
                    </g>
                </g>
            </g>
        </g>
    </g>
</svg>