<?xml version="1.0" encoding="UTF-8"?>
<svg width="23px" height="23px" viewBox="0 0 23 23" version="1.1" xmlns="http://www.w3.org/2000/svg" xmlns:xlink="http://www.w3.org/1999/xlink">
    <title>noun_Newspaper_1218432</title>
    <defs>
        <filter id="filter-1">
            <feColorMatrix in="SourceGraphic" type="matrix" values="0 0 0 0 1.000000 0 0 0 0 0.000000 0 0 0 0 0.000260 0 0 0 1.000000 0"></feColorMatrix>
        </filter>
    </defs>
    <g id="Desktop" stroke="none" stroke-width="1" fill="none" fill-rule="evenodd">
        <g id="D---13---Contact" transform="translate(-1009.000000, -745.000000)">
            <g id="Group-12" transform="translate(345.000000, 690.000000)">
                <g id="Group-11-Copy-3" transform="translate(600.000000, 0.000000)">
                    <g id="noun_Newspaper_1218432" transform="translate(8.000000, 0.000000)" filter="url(#filter-1)">
                        <g transform="translate(56.000000, 55.000000)" id="Group" fill="#000000" fill-rule="nonzero">
                            <path d="M23,0.575 C23,0.25737 22.74263,0 22.425,0 L4.92154,0 C4.60391,0 4.34654,0.25737 4.34654,0.575 L4.34654,6.9 L0.575,6.9 C0.25737,6.9 0,7.15737 0,7.475 L0,20.24 C0,21.76191 1.2328,23 2.74827,23 L20.25173,23 C21.7672,23 23,21.76191 23,20.24 C23,20.23333 22.99839,20.22735 22.99816,20.22091 C22.99839,20.21447 23,20.20826 23,20.20182 L23,0.575 Z M2.74827,21.85 C1.86691,21.85 1.15,21.12757 1.15,20.24 L1.15,8.05 L4.34654,8.05 L4.34654,20.20159 C4.34654,20.20826 4.34815,20.21424 4.34838,20.22068 C4.34815,20.22712 4.34654,20.23333 4.34654,20.23977 C4.34654,21.12757 3.62963,21.85 2.74827,21.85 Z M20.25173,21.85 L4.97605,21.85 C5.30219,21.39621 5.49654,20.84122 5.49654,20.24 C5.49654,20.23333 5.49493,20.22735 5.4947,20.22091 C5.49493,20.21447 5.49654,20.20826 5.49654,20.20182 L5.49654,1.15 L21.85,1.15 L21.85,20.20159 C21.85,20.20826 21.85161,20.21424 21.85184,20.22068 C21.85161,20.22735 21.85,20.23333 21.85,20.24 C21.85,21.12757 21.13309,21.85 20.25173,21.85 Z" id="Shape"></path>
                            <path d="M18.88254,12.50303 L8.31887,12.50303 C8.00124,12.50303 7.74387,12.7604 7.74387,13.07803 C7.74387,13.39566 8.00124,13.65303 8.31887,13.65303 L18.88231,13.65303 C19.19994,13.65303 19.45731,13.39566 19.45731,13.07803 C19.45731,12.7604 19.20017,12.50303 18.88254,12.50303 Z" id="Path"></path>
                            <path d="M16.73526,18.27787 L8.31887,18.27787 C8.00124,18.27787 7.74387,18.53524 7.74387,18.85287 C7.74387,19.1705 8.00124,19.42787 8.31887,19.42787 L16.73503,19.42787 C17.05266,19.42787 17.31003,19.1705 17.31003,18.85287 C17.31003,18.53524 17.05289,18.27787 16.73526,18.27787 Z" id="Path"></path>
                            <path d="M18.88254,15.39045 L8.31887,15.39045 C8.00124,15.39045 7.74387,15.64782 7.74387,15.96545 C7.74387,16.28308 8.00124,16.54045 8.31887,16.54045 L18.88231,16.54045 C19.19994,16.54045 19.45731,16.28308 19.45731,15.96545 C19.45731,15.64782 19.20017,15.39045 18.88254,15.39045 Z" id="Path"></path>
                            <path d="M8.31887,10.235 L14.06887,10.235 C14.3865,10.235 14.64387,9.97763 14.64387,9.66 L14.64387,3.91 C14.64387,3.59237 14.3865,3.335 14.06887,3.335 L8.31887,3.335 C8.00124,3.335 7.74387,3.59237 7.74387,3.91 L7.74387,9.66 C7.74387,9.97763 8.00147,10.235 8.31887,10.235 Z M8.89387,4.485 L13.49387,4.485 L13.49387,9.085 L8.89387,9.085 L8.89387,4.485 Z" id="Shape"></path>
                            <path d="M18.88254,6.22242 L16.25341,6.22242 C15.93578,6.22242 15.67841,6.47979 15.67841,6.79742 C15.67841,7.11505 15.93578,7.37242 16.25341,7.37242 L18.88254,7.37242 C19.20017,7.37242 19.45754,7.11505 19.45754,6.79742 C19.45754,6.47979 19.20017,6.22242 18.88254,6.22242 Z" id="Path"></path>
                            <path d="M18.88254,3.335 L16.25341,3.335 C15.93578,3.335 15.67841,3.59237 15.67841,3.91 C15.67841,4.22763 15.93578,4.485 16.25341,4.485 L18.88254,4.485 C19.20017,4.485 19.45754,4.22763 19.45754,3.91 C19.45754,3.59237 19.20017,3.335 18.88254,3.335 Z" id="Path"></path>
                        </g>
                    </g>
                </g>
            </g>
        </g>
    </g>
</svg>