<svg height="12" viewBox="0 0 14 12" width="14" xmlns="http://www.w3.org/2000/svg" xmlns:xlink="http://www.w3.org/1999/xlink"><filter id="a"><feColorMatrix in="SourceGraphic" type="matrix" values="0 0 0 0 0.584314 0 0 0 0 0.584314 0 0 0 0 0.584314 0 0 0 1.000000 0"/></filter><g fill="none" fill-rule="evenodd" filter="url(#a)" transform="translate(0 -1)"><path d="m9.00255768 1.51285347-1.26363898 1.25835476c-.2219623-.06134922-.47687647-.09662998-.74011229-.09662998-1.57716156 0-2.85568132 1.26604273-2.85568132 2.82776349 0 .26064027.03560678.51306234.10226909.7527153l-.00470741-.01986062-1.97042012 1.9440874c-.94237483-.70694087-1.7276872-1.62596401-2.27026665-2.67930591 1.32798106-2.5385805 3.96087462-4.24343469 6.9958838-4.24343469.71086386 0 1.39964081.09351502 2.05450655.26881427l-.05497187-.01252611zm2.71289722 1.30784062c.9495141.70694087 1.7348264 1.62596401 2.2845451 2.67930591-1.3274233 2.54041412-3.9612762 4.24672638-6.99757936 4.24672638-.71541511 0-1.40849789-.09473008-2.06715632-.27221642l.0550611.01263657 1.26363899-1.25835476c.22196229.06134922.47687647.09662998.74011228.09662998 1.57716156 0 2.85568133-1.26604273 2.85568133-2.82776349 0-.26064027-.03560678-.51306234-.10226909-.75273739l.00470741.01986062 1.97042016-1.9440874zm-.17848-2.82069409 1.0137668 1.00385604-10.09483345 9.99614396-1.01376687-1.00385604z" fill="#000" fill-rule="nonzero" transform="translate(0 1.5)"/></g></svg>