<svg height="13" viewBox="0 0 20 13" width="20" xmlns="http://www.w3.org/2000/svg"><path d="m15.0078 21.4996c.986 0 1.92-.118 2.8-.355.88-.238 1.691-.55 2.433-.937.743-.388 1.408-.812 1.995-1.277.586-.465 1.086-.933 1.499-1.405.412-.472.727-.908.942-1.308s.323-.724.323-.971c0-.248-.108-.571-.323-.968s-.53-.832-.942-1.304c-.413-.473-.914-.942-1.503-1.409-.59-.467-1.256-.894-1.998-1.281-.743-.387-1.553-.698-2.43-.932-.878-.235-1.81-.353-2.796-.353-.976 0-1.902.118-2.776.353-.875.234-1.684.545-2.427.932-.742.387-1.409.814-2.001 1.281s-1.097.936-1.515 1.409c-.418.472-.737.907-.958 1.304-.22.397-.331.72-.331.968 0 .247.111.571.331.971.221.4.54.836.958 1.308s.923.94 1.515 1.405 1.259.889 2.001 1.277c.743.387 1.552.699 2.427.937.874.237 1.8.355 2.776.355m0-2.221c-.758 0-1.445-.183-2.06-.55-.615-.366-1.105-.855-1.468-1.466-.364-.612-.548-1.284-.553-2.016 0-.749.182-1.427.545-2.036.364-.609.854-1.094 1.472-1.455s1.306-.542 2.064-.542c.748 0 1.43.181 2.048.542s1.11.846 1.476 1.455.549 1.287.549 2.036c0 .552-.105 1.07-.315 1.555-.211.485-.503.913-.876 1.285-.374.372-.806.663-1.297.875-.491.211-1.019.317-1.585.317m0-2.547c.41 0 .763-.145 1.059-.437.296-.291.444-.641.444-1.048 0-.408-.148-.758-.444-1.049-.296-.292-.649-.438-1.059-.438-.416 0-.771.146-1.067.438-.296.291-.444.641-.444 1.049 0 .407.148.757.444 1.048.296.292.651.437 1.067.437" fill="#222" fill-rule="evenodd" transform="translate(-5 -9)"/></svg>