<?xml version="1.0" encoding="UTF-8"?>
<svg width="21px" height="18px" viewBox="0 0 21 18" version="1.1" xmlns="http://www.w3.org/2000/svg" xmlns:xlink="http://www.w3.org/1999/xlink">
    <title>Group 24</title>
    <g id="Desktop-&amp;-Mobile" stroke="none" stroke-width="1" fill="none" fill-rule="evenodd">
        <g id="D---18----Validation-inscription" transform="translate(-366.000000, -494.000000)" fill="#FFFFFF" fill-rule="nonzero" stroke="#FFFFFF" stroke-width="0.3">
            <g id="Group-29" transform="translate(65.000000, 370.000000)">
                <g id="Group-27" transform="translate(0.000000, 125.000000)">
                    <g id="Group-25" transform="translate(302.000000, -0.000000)">
                        <g id="Group-23" transform="translate(-0.000000, -0.000000)">
                            <path d="M16.9025974,5.80645161 C16.884871,5.80645161 16.8681236,5.80946005 16.8506232,5.80991683 C15.921684,2.37980405 12.931578,0 9.5,0 C7.45561078,0 5.53568257,0.833417342 4.09395926,2.34690021 C3.99781226,2.44783267 3.99805321,2.61113912 4.09468218,2.71181956 C4.19094968,2.812248 4.34733919,2.81199597 4.44360669,2.71106351 C5.79207462,1.29561492 7.58778283,0.516129032 9.5,0.516129032 C12.6874303,0.516129032 15.4726816,2.70816532 16.3625837,5.88016632 C16.3436073,5.88542715 16.3254442,5.89251512 16.3066937,5.89831148 C16.281181,5.90618699 16.2557286,5.91414124 16.2306376,5.92299332 C16.1972934,5.93477507 16.1645817,5.94786415 16.1320507,5.96131551 C16.108029,5.97123863 16.0838718,5.9808625 16.060317,5.99168346 C16.0273041,6.00683592 15.9951949,6.02357925 15.9631459,6.04041708 C15.9414285,6.05183657 15.9193647,6.0625945 15.8981141,6.07475427 C15.8638663,6.09434852 15.8308082,6.11580139 15.7977802,6.13730152 C15.7800087,6.14886276 15.7616197,6.15951045 15.7442247,6.17160723 C15.6958801,6.20520413 15.6488909,6.24069115 15.6035283,6.27822581 C15.598468,6.28239982 15.5936937,6.2869361 15.5886786,6.29117314 C15.5464486,6.32680191 15.5054234,6.36387979 15.4660098,6.40272178 C15.4507383,6.41777974 15.4366265,6.43405053 15.4217918,6.44956529 C15.3946827,6.47794862 15.3675585,6.50634766 15.3419705,6.53621159 C15.3258406,6.5550183 15.3108402,6.5748488 15.2953428,6.59422255 C15.272782,6.6224641 15.2502815,6.65075293 15.2290761,6.68016005 C15.2137444,6.70142392 15.1993615,6.72341231 15.1847527,6.74525897 C15.1652492,6.77442983 15.1460469,6.8037897 15.1278988,6.8339529 C15.1140732,6.85691788 15.1009704,6.88035538 15.0879581,6.90388738 C15.0709697,6.93457035 15.0545687,6.96559982 15.039011,6.99716485 C15.0270679,7.02137414 15.0155767,7.04581972 15.0044921,7.07051729 C14.9900188,7.10277535 14.9764492,7.1355217 14.9634519,7.16858307 C14.953542,7.19380044 14.9437224,7.21909654 14.9347011,7.24475494 C14.9226978,7.27887161 14.9119897,7.31355535 14.9015828,7.34841234 C14.8939471,7.37397623 14.8860855,7.39942986 14.8793383,7.425356 C14.8697296,7.46232361 14.8618228,7.49993703 14.8540515,7.53759768 C14.8489309,7.56235827 14.8431778,7.58686684 14.8388704,7.61189517 C14.8316413,7.65399763 14.8266261,7.69682462 14.8217314,7.7396831 C14.8192916,7.76108872 14.8157524,7.78217933 14.813915,7.80375819 C14.8083726,7.86851058 14.8051948,7.93390877 14.8051948,8 C14.8051948,8.06903667 14.8082672,8.13741179 14.8143065,8.20496787 C14.8263701,8.34009577 14.8502562,8.4719632 14.8848956,8.5993416 C15.110052,9.4272776 15.7900692,10.0655399 16.6390968,10.1759073 C16.6393076,10.1759388 16.6395034,10.175923 16.6397142,10.1759545 C16.6398799,10.1759702 16.6400155,10.1760175 16.6401811,10.1760333 C16.6505428,10.1774194 16.6607841,10.1780494 16.6710253,10.1780494 L16.6710403,10.1780494 C16.7479399,10.1871692 16.8239358,10.1935484 16.9025974,10.1935484 C18.0591328,10.1935484 19,9.20955141 19,8 C19,6.79044859 18.0591328,5.80645161 16.9025974,5.80645161 Z M16.9025974,9.67741935 C16.8344029,9.67741935 16.7683771,9.67300908 16.7011465,9.66393649 C15.9016082,9.55997985 15.2987013,8.84463205 15.2987013,8 C15.2987013,7.89442098 15.3081292,7.79087386 15.3261719,7.69027218 C15.4525154,6.98609187 16.001686,6.42700983 16.7022309,6.3359375 C16.7683771,6.32699092 16.8344029,6.32258065 16.9025974,6.32258065 C17.7869572,6.32258065 18.5064935,7.0751008 18.5064935,8 C18.5064935,8.9248992 17.7869572,9.67741935 16.9025974,9.67741935 Z" id="Shape"></path>
                            <path d="M2.0974026,10.1935484 C2.11505365,10.1935484 2.1319366,10.1905242 2.1493768,10.1900674 C3.07831604,13.6202117 6.06842199,16 9.5,16 C11.5443892,16 13.4643174,15.1665827 14.9060407,13.6530998 C15.0021877,13.5521673 15.0019468,13.3888609 14.9053178,13.2881804 C14.8089298,13.1875 14.6525403,13.187752 14.5563933,13.2889365 C13.2079254,14.7043851 11.4122172,15.483871 9.5,15.483871 C6.31196732,15.483871 3.52623401,13.2910786 2.63693435,10.1181956 C2.66276332,10.1111076 2.68759829,10.1017673 2.71300556,10.093687 C2.73686159,10.086095 2.76097365,10.0791173 2.78445316,10.0706748 C2.82029745,10.0577747 2.8551929,10.0429372 2.89008837,10.0280998 C2.91093228,10.019232 2.93225811,10.0112777 2.95275563,10.0017326 C2.99340425,9.98283138 3.0328179,9.96170929 3.07200565,9.9402249 C3.08560538,9.93277468 3.09979251,9.92630101 3.11321152,9.91855151 C3.16532126,9.88841982 3.21606051,9.85608302 3.26526356,9.82157254 C3.27683011,9.81346077 3.28755327,9.80426219 3.29893911,9.79591414 C3.33610873,9.76869639 3.37294702,9.74103763 3.40826417,9.7114415 C3.42492122,9.69748612 3.44052402,9.68230214 3.45674432,9.66782697 C3.48540469,9.64227884 3.51403492,9.6166992 3.54130972,9.58959172 C3.5585692,9.57243886 3.57484973,9.55424645 3.59153689,9.53649507 C3.61620619,9.51025388 3.64080018,9.48393396 3.66417428,9.4564327 C3.68074097,9.43696444 3.69643413,9.41667716 3.71232309,9.39659461 C3.73401038,9.3691721 3.75542659,9.34156059 3.77583375,9.31305125 C3.79118052,9.29161414 3.80583451,9.26965721 3.82042826,9.24762157 C3.83951006,9.21882872 3.85810995,9.18967363 3.87588146,9.15993572 C3.88963181,9.13692348 3.90290022,9.11356475 3.9158373,9.09000124 C3.93247928,9.05969631 3.94836824,9.02896609 3.96362467,8.99779484 C3.97550749,8.97350679 3.98716441,8.94909272 3.99820385,8.92431639 C4.01246627,8.89231035 4.02567442,8.85970575 4.03847596,8.82689641 C4.04823525,8.8019153 4.05803972,8.77696573 4.06692547,8.75154359 C4.0788836,8.71733239 4.08941099,8.68247541 4.09975762,8.64752392 C4.10721263,8.62235381 4.11504416,8.59734121 4.12164071,8.57179308 C4.13115902,8.53490423 4.13887006,8.49732232 4.1465811,8.45972467 C4.15161134,8.43518459 4.15739461,8.41092805 4.16162665,8.38610446 C4.16881058,8.34401778 4.17369022,8.30120653 4.17853974,8.25837954 C4.18091933,8.23728893 4.18441338,8.21656062 4.18622065,8.19531249 C4.19168764,8.13087512 4.19480519,8.06577621 4.19480519,8 C4.19480519,7.93159337 4.191778,7.86383254 4.18585918,7.79689076 C4.18381093,7.77362653 4.17948853,7.75107107 4.1767475,7.72802735 C4.17158169,7.68461757 4.16709365,7.64098728 4.15951815,7.59836506 C4.15615964,7.57938508 4.15088842,7.56111394 4.14704795,7.54229146 C4.13769532,7.49640877 4.12859868,7.45040008 4.11652006,7.4055727 C4.11215248,7.3893649 4.10615835,7.37388168 4.10144438,7.3577999 C4.08778439,7.31123992 4.0741244,7.26466418 4.05763302,7.2194273 C4.05237685,7.20499938 4.04565983,7.19134325 4.04011751,7.17704134 C4.02228574,7.1310799 4.00430335,7.08519721 3.98362511,7.04081086 C3.97683275,7.02620968 3.9685946,7.01252206 3.96148598,6.99809414 C3.94032581,6.95514114 3.91912045,6.9122039 3.89538491,6.87092049 C3.88610756,6.85477572 3.87530909,6.83974924 3.86564019,6.82387223 C3.84220586,6.78540826 3.81896733,6.7467553 3.79333413,6.70994519 C3.78396642,6.69649383 3.77330349,6.68412929 3.76364964,6.67089843 C3.73604353,6.63308026 3.70842234,6.59526209 3.67855713,6.5594128 C3.66727673,6.54586694 3.6547011,6.5335969 3.64310442,6.52033455 C3.61331451,6.48629662 3.58361495,6.45214844 3.55182198,6.42012663 C3.53769511,6.40588772 3.52225798,6.3931609 3.50775458,6.37934728 C3.4768803,6.34994015 3.44626207,6.3202495 3.41371606,6.29277974 C3.3976012,6.27918663 3.38022123,6.26723161 3.36371479,6.25412676 C3.33119891,6.22832661 3.29901437,6.20210119 3.26500748,6.17826991 C3.24670882,6.16543283 3.22719025,6.15442289 3.20846989,6.1422001 C3.17485457,6.12022746 3.14158567,6.09771925 3.10670525,6.07771548 C3.08516855,6.06538245 3.06244208,6.05506552 3.04043851,6.04350428 C3.00692862,6.02587892 2.97384042,6.00751324 2.93929136,5.99174648 C2.91438111,5.98037425 2.88831116,5.97130168 2.86287376,5.9609375 C2.8299663,5.94750188 2.79755583,5.93313695 2.7638351,5.92143396 C2.73451208,5.91124307 2.70407455,5.90365107 2.67416415,5.89481476 C2.64310915,5.88561618 2.61255115,5.87523626 2.58089372,5.86751827 C2.54773023,5.85943801 2.51352754,5.85419293 2.47973153,5.84778225 C2.45147779,5.84241115 2.42379637,5.83544921 2.39512095,5.8312752 C2.38403633,5.82812501 2.37259026,5.82560483 2.36090321,5.82409275 C2.27306971,5.81224797 2.18692295,5.80645161 2.0974026,5.80645161 C0.940867243,5.80645161 0,6.79044859 0,8 C0,9.20955141 0.940867243,10.1935484 2.0974026,10.1935484 Z M2.0974026,6.32258065 C2.15475346,6.32258065 2.21065849,6.32573084 2.26620205,6.33203125 C2.2770457,6.33505546 2.28813032,6.33732359 2.29957639,6.33870968 C3.09863282,6.44039819 3.7012987,7.1546119 3.7012987,8 C3.7012987,8.8453881 3.09863282,9.55960181 2.29957639,9.66129032 C2.28825081,9.66267641 2.27728668,9.66494457 2.2665635,9.66796875 C2.21089944,9.67426916 2.15487395,9.67741935 2.0974026,9.67741935 C1.21304281,9.67741935 0.493506494,8.9248992 0.493506494,8 C0.493506494,7.0751008 1.21304281,6.32258065 2.0974026,6.32258065 Z" id="Shape"></path>
                        </g>
                    </g>
                </g>
            </g>
        </g>
    </g>
</svg>