<?xml version="1.0" encoding="UTF-8"?>
<svg width="19px" height="18px" viewBox="0 0 19 18" version="1.1" xmlns="http://www.w3.org/2000/svg" xmlns:xlink="http://www.w3.org/1999/xlink">
    <title>Shape</title>
    <g id="Desktop" stroke="none" stroke-width="1" fill="none" fill-rule="evenodd">
        <g id="D---05---Avocat---Profil" transform="translate(-221.000000, -616.000000)" fill="#222222" fill-rule="nonzero">
            <g id="Group-14" transform="translate(65.000000, 249.000000)">
                <g id="Group-12" transform="translate(0.000000, 350.999734)">
                    <path d="M169.805014,21.5028699 C172.533557,21.5028699 174.304948,23.3469053 174.39629,26.573365 L174.4,26.8379901 L174.4,33.5245659 L169.956223,33.5245659 L169.956223,27.2587769 C169.956223,25.8652774 169.489523,25.1802141 168.509913,25.1802141 C167.799127,25.1802141 167.275372,25.6068257 167.010793,26.2655255 C166.960101,26.3883108 166.931427,26.5797178 166.923276,26.8380995 L166.920837,27.0011524 L166.920837,33.5240292 L162.474574,33.5240292 L162.492054,29.0222704 L162.489022,22.7784737 C162.486327,22.5281353 162.483002,22.343576 162.479013,22.2300641 L162.457303,21.7604944 L166.920837,21.7604944 L166.92,22.58 L166.997944,22.5055149 C167.597401,21.9497637 168.329441,21.6100917 169.299602,21.5243844 L169.547164,21.5082704 L169.805014,21.5028699 Z M161.259538,21.7604944 L161.259538,33.5240292 L156.815761,33.5240292 L156.815761,21.7604944 L161.259538,21.7604944 Z M169.805014,22.3028699 C168.440493,22.3028699 167.637163,22.8067925 166.972594,23.7584672 L166.856672,23.9310463 L166.120837,25.0683194 L166.12,22.56 L163.286,22.56 L163.295173,23.6991731 L163.295569,27.6001666 L163.278,32.724 L166.12,32.724 L166.120837,27.0011524 C166.120837,26.7082148 166.138306,26.4629359 166.182467,26.2532191 L166.220737,26.1024105 L166.269882,25.9638037 C166.645885,25.027633 167.440727,24.3802141 168.509913,24.3802141 C169.953288,24.3802141 170.697782,25.3915579 170.752915,27.0559395 L170.756223,27.2587769 L170.756,32.724 L173.6,32.724 L173.6,26.8379901 C173.6,24.0553672 172.320645,22.4986359 170.221428,22.320162 L170.015734,22.307198 L169.805014,22.3028699 Z M160.459,22.56 L157.615,22.56 L157.615,32.724 L160.459,32.724 L160.459,22.56 Z M159.061533,16.4754341 C160.484818,16.4754341 161.470084,17.4277196 161.499451,18.7689746 C161.499451,20.0328134 160.564787,20.9821671 159.215661,21.0590858 L159.014302,21.0641251 C157.608533,21.0641251 156.6,20.0799037 156.6,18.7689746 C156.6,17.4422466 157.625755,16.4754341 159.061533,16.4754341 Z M159.061533,17.2754341 C158.057345,17.2754341 157.4,17.8950061 157.4,18.7689746 C157.4,19.5856106 157.976261,20.1933493 158.855966,20.2583553 L159.037381,20.2641251 C160.047169,20.2641251 160.699451,19.6383423 160.699547,18.7777593 C160.679877,17.8823252 160.051968,17.2754341 159.061533,17.2754341 Z" id="Shape"></path>
                </g>
            </g>
        </g>
    </g>
</svg>