<?xml version="1.0" encoding="UTF-8"?>
<svg width="20px" height="14px" viewBox="0 0 20 14" version="1.1" xmlns="http://www.w3.org/2000/svg" xmlns:xlink="http://www.w3.org/1999/xlink">
    <title>Shape</title>
    <g id="Desktop" stroke="none" stroke-width="1" fill="none" fill-rule="evenodd">
        <g id="D---05---Avocat---Profil" transform="translate(-150.000000, -618.000000)" fill="#222222" fill-rule="nonzero">
            <g id="Group-14" transform="translate(65.000000, 249.000000)">
                <g id="Group-12" transform="translate(0.000000, 350.999734)">
                    <path d="M105,20.2044281 L105,19.909468 C105,18.798886 104.033274,18 102.845061,18 L87.1549387,18 C85.9666872,18 85,18.798886 85,19.909468 L85,20.2044281 L85,20.2065822 L85,30.0752694 C85,31.1857784 85.9666872,31.9970093 87.1549387,31.9970093 L102.845178,31.9970093 C104.033352,31.9970093 105,31.1857784 105,30.0752694 L105,20.2065822 C105,20.2058885 105,20.2051583 105,20.2044281 Z M87.1549387,18.9906703 L102.845061,18.9906703 C103.387097,18.9906703 103.949772,19.4028259 103.949772,19.909468 L95.9805545,24.7994388 C95.4582067,25.1249209 94.5418714,25.1248844 94.0196017,24.7994753 L86.0636835,19.909687 C86.0636835,19.4028259 86.6128642,18.9906703 87.1549387,18.9906703 Z M87.1549387,30.9939575 C86.6128642,30.9939575 86.0636835,30.5818385 86.0636835,30.0752694 L86.0636835,21.2260365 L93.3695576,25.7107886 C93.8267486,25.9956721 94.4132767,26.1380591 95.0000391,26.1380591 C95.5866452,26.1380591 96.1734467,25.9956356 96.6305987,25.7107886 L103.949811,21.2260365 L103.949811,30.0752694 C103.949811,30.5818385 103.387175,30.9939575 102.845178,30.9939575 L87.1549387,30.9939575 Z" id="Shape"></path>
                </g>
            </g>
        </g>
    </g>
</svg>