<?xml version="1.0" encoding="UTF-8"?>
<svg width="20px" height="19px" viewBox="0 0 20 19" version="1.1" xmlns="http://www.w3.org/2000/svg" xmlns:xlink="http://www.w3.org/1999/xlink">
    <title>Shape</title>
    <g id="Desktop" stroke="none" stroke-width="1" fill="none" fill-rule="evenodd">
        <g id="D---05---Avocat---Profil" transform="translate(-80.000000, -616.000000)" fill="#222222" fill-rule="nonzero">
            <g id="Group-14" transform="translate(65.000000, 249.000000)">
                <g id="Group-12" transform="translate(0.000000, 350.999734)">
                    <path d="M33.857546,30.059739 L31.8392408,28.0414337 C31.3768207,27.5789766 30.7613616,27.3497148 30.1503927,27.4124668 C29.6234394,27.4666094 29.1593494,27.7443731 28.8772068,28.1744709 L28.1543531,29.2762856 C27.3179447,29.0999047 25.1440769,28.511721 23.566223,26.9339042 C21.9881835,25.3558276 21.4000369,23.1815516 21.2238415,22.3457741 L22.3256563,21.6229204 C22.7557911,21.3407035 23.0335178,20.8766506 23.0876975,20.3496974 C23.1504865,19.7388769 22.9211877,19.1233435 22.4587305,18.6608493 L20.4403882,16.6425441 C19.8179525,16.0201455 18.9152296,15.8275849 18.1939716,16.1633506 C16.8351372,16.7957687 15.9191663,18.0928159 15.614758,19.8155078 C15.3362521,21.3916918 15.5669611,23.2126864 16.2819477,25.0817005 C17.0357135,27.0520233 18.2938329,28.9532113 19.9203373,30.5797528 C21.5468045,32.2062571 23.4480296,33.4644137 25.4183524,34.2181053 C26.7728449,34.7362265 28.1019175,35 29.3310917,35 C29.7979648,35 30.2506251,34.9618887 30.6844709,34.8852578 C32.4071628,34.5808866 33.70421,33.6649157 34.3366652,32.3061184 C34.6724309,31.5847862 34.4798703,30.6820633 33.857546,30.059739 Z M33.299495,31.8233625 C32.6966902,33.1184429 31.4364926,33.5905856 30.4854533,33.758654 C27.5077221,34.2847537 23.6780707,32.7194428 20.7293219,29.7707311 C17.780573,26.8219451 16.215225,22.9924051 16.7413989,20.0145254 C16.9094302,19.0635232 17.3815729,17.8033627 18.6766905,17.2005579 C18.758962,17.162261 18.8504366,17.1438547 18.9457706,17.1438547 C19.1781867,17.1438547 19.4332024,17.2533645 19.6312923,17.4514173 L21.6496717,19.4697596 C21.8644608,19.6845488 21.9765312,19.9697715 21.9495155,20.2326915 C21.9360077,20.3640587 21.8814569,20.5459318 21.6980252,20.6662404 L20.2789995,21.5972407 C20.0950111,21.7179946 19.9965599,21.9335259 20.0258021,22.1516178 C20.0439115,22.2865104 20.4950874,25.4806635 22.7572384,27.7427403 C25.0193523,30.0048542 28.2135054,30.4560672 28.3483609,30.4742137 C28.5663044,30.5034559 28.7819841,30.4050789 28.902738,30.2210534 L29.8337754,28.8019906 C29.954084,28.6185589 30.1359571,28.563971 30.2673243,28.5505003 C30.5304299,28.5233733 30.8154671,28.6355921 31.0302562,28.8503441 L33.0485614,30.8686493 C33.3278837,31.1480088 33.4310849,31.5405889 33.299495,31.8233625 Z" id="Shape"></path>
                </g>
            </g>
        </g>
    </g>
</svg>