<?xml version="1.0" encoding="UTF-8"?>
<svg width="12px" height="16px" viewBox="0 0 12 16" version="1.1" xmlns="http://www.w3.org/2000/svg" xmlns:xlink="http://www.w3.org/1999/xlink">
    <title>Shape</title>
    <defs>
        <filter id="filter-1">
            <feColorMatrix in="SourceGraphic" type="matrix" values="0 0 0 0 0.999902 0 0 0 0 1.000000 0 0 0 0 0.999880 0 0 0 1.000000 0"></feColorMatrix>
        </filter>
    </defs>
    <g id="Desktop-&amp;-Mobile" stroke="none" stroke-width="1" fill="none" fill-rule="evenodd">
        <g id="M---17----Formation-continue" transform="translate(-30.000000, -594.000000)">
            <g id="Group-28" transform="translate(30.000000, 399.000000)">
                <g id="Shape-2" transform="translate(0.000000, 195.000000)" filter="url(#filter-1)">
                    <g>
                        <path d="M6,0 C2.68785684,0.00392222626 0.0037760269,2.79192468 0,6.23230665 C0,11.3007904 5.41019308,15.67343 5.67476695,15.8841363 C5.76823186,15.9591219 5.88296433,16 6.00106233,16 C6.66756965,16 12,11.0344143 12,6.23208596 C11.9961069,2.79179017 9.31206032,0.00392198728 6,0 Z M6.01970627,14.752369 C4.89894564,13.7712244 1.06233235,10.1267604 1.06233235,6.23230665 C1.06233235,3.39972479 3.27300146,1.1034635 6,1.1034635 C8.72699854,1.1034635 10.9376676,3.39972479 10.9376676,6.23230665 C10.9376676,10.0354488 7.20500359,13.7596381 6.01970627,14.752369 Z M6.04047486,2.44185437 C4.58074997,2.44172047 3.26468932,3.35498558 2.70599739,4.75577655 C2.14730546,6.15656752 2.45601318,7.76900724 3.48816416,8.84118394 C4.52031515,9.91336064 6.07263366,10.2341158 7.42124362,9.65387499 C8.76985357,9.07363423 9.64911162,7.70667241 9.64911162,6.19043021 C9.64685791,4.12120552 8.03256992,2.44431717 6.04047486,2.44185437 Z M6.04047486,8.83576327 C5.01044264,8.83589715 4.08176036,8.19150617 3.68748484,7.20307834 C3.29320933,6.21465052 3.51098945,5.07684745 4.23927146,4.32024174 C4.96755346,3.56363603 6.06290904,3.33723409 7.0145594,3.74661013 C7.96620977,4.15598617 8.58677927,5.12051742 8.58677927,6.19043021 C8.58519903,7.65055459 7.44617342,8.83387818 6.04047486,8.83576327 Z" id="Shape" fill="#000000" fill-rule="nonzero"></path>
                    </g>
                </g>
            </g>
        </g>
    </g>
</svg>