<?xml version="1.0" encoding="UTF-8"?>
<svg width="69px" height="54px" viewBox="0 0 69 54" version="1.1" xmlns="http://www.w3.org/2000/svg" xmlns:xlink="http://www.w3.org/1999/xlink">
    <title>“</title>
    <g id="Desktop" stroke="none" stroke-width="1" fill="none" fill-rule="evenodd">
        <g id="D---05---Avocat---Profil" transform="translate(-686.000000, -1229.000000)" fill="#DC1517" fill-rule="nonzero">
            <g id="Group-5" transform="translate(0.000000, 1100.000000)">
                <g id="Group-4" transform="translate(427.000000, 129.000000)">
                    <path d="M312,54 C320.358209,54 327.044776,48.1090909 327.044776,39.0272727 C327.044776,31.1727273 322.029851,26.5090909 316.059701,25.2818182 L307.462687,25.2818182 C308.41791,14.9727273 315.58209,7.60909091 328,5.64545455 L328,0 C307.223881,1.96363636 296,15.7090909 296,33.6272727 C296,45.4090909 301.731343,54 312,54 Z M275,54 C283.358209,54 290.044776,48.1090909 290.044776,39.0272727 C290.044776,31.1727273 285.029851,26.5090909 279.059701,25.2818182 L270.462687,25.2818182 C271.41791,14.9727273 278.58209,7.60909091 291,5.64545455 L291,0 C270.223881,1.96363636 259,15.7090909 259,33.6272727 C259,45.4090909 264.731343,54 275,54 Z" id="“"></path>
                </g>
            </g>
        </g>
    </g>
</svg>