<?xml version="1.0" encoding="UTF-8"?>
<svg width="20px" height="20px" viewBox="0 0 20 20" version="1.1" xmlns="http://www.w3.org/2000/svg" xmlns:xlink="http://www.w3.org/1999/xlink">
    <title>ui / dropdown / default</title>
    <defs>
        <filter id="filter-1">
            <feColorMatrix in="SourceGraphic" type="matrix" values="0 0 0 0 0.133333 0 0 0 0 0.133333 0 0 0 0 0.133333 0 0 0 1.000000 0"></feColorMatrix>
        </filter>
    </defs>
    <g id="Desktop" stroke="none" stroke-width="1" fill="none" fill-rule="evenodd">
        <g id="D---04---Avocats" transform="translate(-356.000000, -621.000000)">
            <g id="Filter" transform="translate(65.000000, 591.000000)">
                <g id="Icon" transform="translate(286.000000, 25.000000)" filter="url(#filter-1)">
                    <g>
                        <path d="M24.8528746,23.3328692 L20.0035965,18.4519958 C21.2089632,16.9930318 21.7260851,15.4592958 21.7260851,13.4179696 C21.7260851,8.7762825 17.9744302,5 13.3630941,5 C8.75165488,5 5,8.7762825 5,13.4179696 C5,18.0593456 8.75165488,21.835317 13.3630941,21.835317 C15.3910602,21.835317 17.0323726,21.2211805 18.4818616,20.0079346 L23.3312427,24.8889116 C23.4820423,25.0408007 23.8999066,25 24.0975735,25 C24.2952405,25 24.4930104,24.9241073 24.643913,24.7722183 C24.9456152,24.4685439 25.1546798,23.6365436 24.8528746,23.3328692 Z M7.15356081,13.4179418 C7.15356081,9.97151862 9.93912679,7.16765852 13.3630849,7.16765852 C16.7869491,7.16765852 19.5724213,9.97151862 19.5724213,13.4179418 C19.5724213,16.8640817 16.7869491,19.6676585 13.3630849,19.6676585 C9.93912679,19.6676585 7.15356081,16.8640817 7.15356081,13.4179418 Z" id="Shape" fill="#000000" fill-rule="nonzero"></path>
                    </g>
                </g>
            </g>
        </g>
    </g>
</svg>