<?xml version="1.0" standalone="no"?>
<!DOCTYPE svg PUBLIC "-//W3C//DTD SVG 1.1//EN" "http://www.w3.org/Graphics/SVG/1.1/DTD/svg11.dtd" >
<svg xmlns="http://www.w3.org/2000/svg">
<metadata>Generated by IcoMoon</metadata>
<defs>
<font id="icomoon" horiz-adv-x="1024">
<font-face units-per-em="1024" ascent="960" descent="-64" />
<missing-glyph horiz-adv-x="1024" />
<glyph unicode="&#x20;" horiz-adv-x="512" d="" />
<glyph unicode="&#xe900;" glyph-name="arrow-bottom" horiz-adv-x="1463" d="M0 751.063l731.429-731.429 731.429 731.429-208.937 208.937-522.491-522.196-522.491 522.196z" />
<glyph unicode="&#xe901;" glyph-name="arrow-right" horiz-adv-x="614" d="M49.844-69.486l535.299 509.746-539.967 514.254c188.798-317.981 190.836-707.835 4.667-1024z" />
<glyph unicode="&#xe902;" glyph-name="arrow-top" horiz-adv-x="1152" d="M234.732 960v-117.882h690.935l-925.667-822.815 93.716-83.303 925.667 822.815v-614.164h132.617v815.349h-132.617z" />
<glyph unicode="&#xe903;" glyph-name="arrow-top2" horiz-adv-x="964" d="M246.877 610.845l34.768-34.768 181.143 181.143v-485.367h49.139v485.367l181.143-181.143 34.768 34.768-240.481 240.481-34.768-34.768z" />
<glyph unicode="&#xe904;" glyph-name="arrow" horiz-adv-x="1308" d="M1213.155 522.093l-438.386 438.386-74.093-74.093 386.026-386.026h-1034.343v-104.719h1034.343l-386.026-386.026 74.093-74.093 512.479 512.479z" />
<glyph unicode="&#xe905;" glyph-name="arrow2" horiz-adv-x="439" d="M438.857 448l-30.135 31.006-325.96 334.709-82.763-62.011 295.825-303.704-295.825-303.703 82.763-62.011 325.96 334.709z" />
<glyph unicode="&#xe906;" glyph-name="attachment" horiz-adv-x="939" d="M317.099-32c-83.456 0-162.731 33.664-223.317 94.72-120.32 121.429-125.227 313.941-11.008 429.227l372.139 375.381c37.233 37.479 88.802 60.677 145.789 60.677 0.496 0 0.992-0.002 1.487-0.005h-0.076c60.117 0 117.248-24.192 160.853-68.181 86.656-87.467 90.027-226.432 7.339-309.803l-372.608-375.381c-23.125-23.323-55.178-37.763-90.604-37.763-0.307 0-0.614 0.001-0.921 0.003h0.047c-38.503 0.071-73.287 15.93-98.236 41.446l-0.025 0.026c-53.035 53.589-54.699 139.051-3.669 190.592l343.893 346.325c9.107 9.209 21.743 14.911 35.711 14.911 13.862 0 26.413-5.617 35.499-14.698v0c19.712-19.712 19.797-51.669 0.171-71.424l-343.851-346.453c-12.075-12.203-10.411-33.749 3.755-48 6.789-7.036 16.232-11.471 26.712-11.69l0.040-0.001c5.547 0 13.483 1.365 20.053 7.979l372.565 375.381c43.691 44.075 40.405 119.125-7.339 167.339-45.696 46.080-123.264 49.707-165.163 7.467l-372.139-375.424c-75.264-75.947-70.315-204.587 11.093-286.677 41.472-41.899 95.36-64.939 151.808-64.939 50.432 0 97.195 19.115 131.541 53.76l372.181 375.467c9.112 9.198 21.747 14.893 35.712 14.893 13.88 0 26.446-5.626 35.542-14.723v0c19.669-19.712 19.797-51.627 0.171-71.467l-372.139-375.339c-53.419-53.888-125.525-83.584-203.008-83.584z" />
<glyph unicode="&#xe907;" glyph-name="calendar" d="M928.067 852.211h-65.752v26.947c0 44.648-36.194 80.842-80.842 80.842s-80.842-36.194-80.842-80.842v-26.947h-107.789v26.947c0 44.648-36.194 80.842-80.842 80.842s-80.842-36.194-80.842-80.842v-26.947h-107.789v26.947c0 44.648-36.194 80.842-80.842 80.842s-80.842-36.194-80.842-80.842v-26.947h-65.752c-52.945-0.089-95.844-42.987-95.933-95.933v-724.345c0.089-52.945 42.987-95.844 95.933-95.933h832.135c52.945 0.089 95.844 42.987 95.933 95.933v724.345c-0.089 52.945-42.987 95.844-95.933 95.933zM754.526 879.158c0 14.883 12.065 26.947 26.947 26.947s26.947-12.065 26.947-26.947v-107.789c0-14.883-12.065-26.947-26.947-26.947s-26.947 12.065-26.947 26.947v107.789zM485.053 879.158c0 14.883 12.065 26.947 26.947 26.947s26.947-12.065 26.947-26.947v-107.789c0-14.883-12.065-26.947-26.947-26.947s-26.947 12.065-26.947 26.947v107.789zM215.579 879.158c0 14.883 12.065 26.947 26.947 26.947s26.947-12.065 26.947-26.947v-107.789c0-14.883-12.065-26.947-26.947-26.947s-26.947 12.065-26.947 26.947v107.789zM95.933 798.316h65.752v-26.947c0-44.648 36.194-80.842 80.842-80.842s80.842 36.194 80.842 80.842v26.947h107.789v-26.947c0-44.648 36.194-80.842 80.842-80.842s80.842 36.194 80.842 80.842v26.947h107.789v-26.947c0-44.648 36.194-80.842 80.842-80.842s80.842 36.194 80.842 80.842v26.947h65.752c11.184 0.117 21.945-4.275 29.854-12.184s12.301-18.669 12.186-29.854v-119.646h-916.215v119.646c-0.114 11.184 4.277 21.945 12.186 29.854s18.669 12.301 29.854 12.184v0zM928.067-10.108h-832.135c-11.184-0.114-21.945 4.277-29.854 12.186s-12.301 18.669-12.186 29.854v550.804h916.215v-550.804c0.114-11.184-4.277-21.945-12.186-29.854s-18.669-12.301-29.854-12.186z" />
<glyph unicode="&#xe908;" glyph-name="chat" d="M512 899.765c-249.503 0-451.765-202.262-451.765-451.765 0-81.257 21.427-157.425 58.918-223.244 8.074-14.173 10.562-31.461 5.619-47.935l-49.734-165.786 165.781 49.736c16.479 4.945 33.761 2.458 47.937-5.62 65.822-37.49 141.987-58.916 223.244-58.916 249.501 0 451.765 202.264 451.765 451.765 0 249.503-202.264 451.765-451.765 451.765zM0 448c0 282.77 229.23 512 512 512s512-229.23 512-512c0-282.769-229.231-512-512-512-91.985 0-178.39 24.287-253.056 66.813-0.494 0.283-0.794 0.259-0.843 0.253-0.005 0-0.007 0-0.007 0l-165.748-49.724c-45.947-13.782-88.787 29.058-75.003 75.005l49.727 165.755c0.005 0.048 0.025 0.349-0.257 0.843-42.528 74.668-66.812 161.069-66.812 253.054zM331.294 538.353c0 16.631 13.484 30.118 30.118 30.118h120.471c16.631 0 30.118-13.487 30.118-30.118s-13.487-30.118-30.118-30.118h-120.471c-16.633 0-30.118 13.487-30.118 30.118zM331.294 387.765c0 16.631 13.484 30.118 30.118 30.118h301.176c16.631 0 30.118-13.487 30.118-30.118s-13.487-30.118-30.118-30.118h-301.176c-16.633 0-30.118 13.487-30.118 30.118z" />
<glyph unicode="&#xe909;" glyph-name="circle" d="M512 960c282.77 0 512-229.23 512-512s-229.23-512-512-512c-282.77 0-512 229.23-512 512s229.23 512 512 512zM512 832c-212.077 0-384-171.923-384-384s171.923-384 384-384c212.077 0 384 171.923 384 384s-171.923 384-384 384z" />
<glyph unicode="&#xe90a;" glyph-name="close" horiz-adv-x="1073" d="M990.242 960l-453.861-433.231-453.861 433.231-82.52-78.769 453.861-433.23-453.861-433.233 82.52-78.769 453.861 433.231 453.861-433.231 82.52 78.769-453.861 433.233 453.861 433.23-82.52 78.769z" />
<glyph unicode="&#xe90b;" glyph-name="contact1" horiz-adv-x="1221" d="M1210.77 701.414l-246.215 250.828c-10.153 10.343-25.383 10.343-35.536 0l-86.302-87.919c-12.692-12.929-25.383-20.687-40.613-28.444 0 0 0 0 0 0l-55.843 15.515c-50.766 12.929-104.070 10.343-152.298-7.758-32.998-12.929-63.458-31.030-88.841-56.889-12.692 5.172-25.383 7.758-35.536 10.343-35.536 5.172-68.534 23.273-93.917 49.131l-86.302 87.919c-5.077 5.172-10.153 7.758-17.768 7.758s-12.692-2.586-17.768-7.758l-246.215-250.828c-10.153-10.343-10.153-25.859 0-36.202l86.302-87.919c25.383-25.859 43.151-59.475 48.228-95.677 5.077-28.444 15.23-56.889 27.921-80.162l-30.46-36.202c-30.46-38.788-25.383-95.677 12.692-126.707 15.23-12.929 35.536-20.687 55.843-20.687 2.538 0 5.077 0 10.153 0 2.538-23.273 12.692-46.545 32.998-62.061 15.23-12.929 35.536-20.687 55.843-20.687 2.538 0 5.077 0 10.153 0 2.538-23.273 12.692-46.545 32.998-62.061 15.23-12.929 35.536-20.687 55.843-20.687 2.538 0 5.077 0 10.153 0 0 0 0 0 0 0 2.538-23.273 12.692-43.96 32.998-59.475 15.23-12.929 35.536-20.687 55.843-20.687s40.613 7.758 55.843 20.687l10.153-10.343c17.768-18.101 43.151-28.444 65.996-28.444 20.306 0 40.613 7.758 58.381 23.273 15.23 15.515 25.383 33.616 27.921 54.303 5.077 0 10.153-2.586 15.23-2.586 22.845 0 45.689 10.343 60.919 25.859 10.153 10.343 17.768 20.687 20.306 33.616 15.23-10.343 32.998-15.515 50.766-15.515 22.845 0 45.689 7.758 60.919 25.859 17.768 18.101 25.383 41.374 25.383 64.646 0 0 0 0 2.538 0 20.306 0 40.613 7.758 58.381 23.273s27.921 38.788 27.921 64.646c0 23.273-7.615 49.131-25.383 64.646l-25.383 25.859 27.921 28.444c32.998 33.616 55.843 77.576 63.458 124.121 5.077 36.202 22.845 69.818 48.228 95.677l86.302 87.919c0 15.515 0 31.030-10.153 41.374zM185.296 259.232c-15.23 12.929-17.768 36.202-5.077 51.717l76.149 93.091c7.615 7.758 17.768 12.929 27.921 12.929 7.615 0 17.768-2.586 22.845-7.758 15.23-12.929 17.768-36.202 5.077-51.717l-76.149-93.091c-10.153-15.515-35.536-18.101-50.766-5.172zM281.751 179.071c-15.23 12.929-17.768 36.202-5.077 51.717l76.149 93.091c0 0 0 0 0 0l40.613 49.131c7.615 7.758 17.768 12.929 27.921 12.929 7.615 0 17.768-2.586 22.845-7.758 7.615-5.172 12.692-15.515 12.692-25.859s-2.538-20.687-7.615-28.444l-12.692-15.515c0 0 0 0 0 0l-101.532-126.707c-12.692-12.929-38.075-15.515-53.304-2.586zM378.207 96.323c-7.615 5.172-12.692 15.515-12.692 25.859s2.538 20.687 7.615 28.444l101.532 126.707c7.615 7.758 17.768 12.929 27.921 12.929 7.615 0 17.768-2.586 22.845-7.758 7.615-5.172 12.692-15.515 12.692-25.859s-2.538-20.687-7.615-28.444l-101.532-126.707c-10.153-12.929-35.536-15.515-50.766-5.172zM474.662 16.162c-7.615 5.172-12.692 15.515-12.692 25.859s2.538 20.687 7.615 28.444l76.149 93.091c7.615 7.758 17.768 12.929 27.921 12.929 7.615 0 17.768-2.586 22.845-7.758 7.615-5.172 12.692-15.515 12.692-25.859s-2.538-20.687-7.615-28.444l-76.149-93.091c-10.153-15.515-35.536-18.101-50.766-5.172zM652.344 0.646c-15.23-12.929-38.075-10.343-53.304 5.172l-10.153 10.343 45.689 59.475 20.306-20.687c7.615-7.758 10.153-18.101 10.153-28.444 0-7.758-5.077-18.101-12.692-25.859zM977.246 212.687c-15.23-12.929-38.075-10.343-53.304 5.172l-261.445 263.758c-10.153 10.343-25.383 10.343-35.536 0s-10.153-25.859 0-36.202l261.445-266.343c0 0 0 0 0 0l2.538-2.586c15.23-15.515 15.23-38.788 0-54.303s-38.075-15.515-53.304 0l-263.983 268.929c-10.153 10.343-25.383 10.343-35.536 0 0 0 0 0 0 0s0 0 0 0c-10.153-10.343-10.153-25.859 0-36.202l220.832-224.97c7.615-7.758 10.153-15.515 10.153-25.859s-5.077-20.687-10.153-25.859c-15.23-15.515-38.075-15.515-53.304 0l-45.689 46.545c2.538 7.758 2.538 15.515 2.538 25.859-2.538 23.273-12.692 43.96-32.998 59.475-12.692 10.343-25.383 15.515-40.613 18.101 2.538 10.343 5.077 23.273 2.538 33.616-2.538 23.273-12.692 43.96-32.998 59.475-15.23 12.929-32.998 18.101-50.766 20.687 0 5.172 0 10.343 0 15.515-2.538 23.273-12.692 43.96-32.998 59.475-15.23 12.929-35.536 20.687-55.843 20.687s-40.613-7.758-55.843-20.687c-5.077 12.929-12.692 23.273-22.845 33.616-15.23 12.929-35.536 20.687-55.843 20.687-25.383 0-50.766-12.929-68.534-33.616l-10.153-12.929c-7.615 15.515-10.153 31.030-12.692 46.545-7.615 46.545-30.46 90.505-63.458 124.121l-68.534 69.818 210.679 214.626 68.534-69.818c32.998-33.616 76.149-56.889 121.838-64.646 0 0 0 0 0 0l-101.532-95.677c-15.23-12.929-22.845-33.616-22.845-51.717 0-20.687 7.615-38.788 20.306-54.303 22.845-25.859 58.381-31.030 88.841-15.515l119.3 62.061c17.768 7.758 35.536 12.929 55.843 7.758 17.768-2.586 32.998-10.343 45.689-23.273l314.749-310.303c7.615-7.758 10.153-18.101 10.153-28.444-2.538-7.758-7.615-18.101-15.23-23.273zM1088.931 616.081c-32.998-33.616-55.843-77.576-63.458-124.121-5.077-36.202-22.845-69.818-48.228-95.677l-27.921-28.444-251.292 248.242c-20.306 20.687-43.151 31.030-71.072 36.202-30.46 5.172-60.919 0-88.841-12.929l-119.3-62.061c-10.153-5.172-20.306-2.586-27.921 5.172-5.077 5.172-7.615 10.343-5.077 18.101 0 7.758 2.538 12.929 7.615 15.515l147.221 137.051c20.306 20.687 45.689 36.202 73.611 46.545 40.613 15.515 81.226 15.515 121.838 5.172l55.843-15.515c2.538 0 2.538 0 5.077 0 7.615-5.172 15.23-5.172 22.845 0 22.845 10.343 43.151 25.859 60.919 43.96l68.534 69.818 210.679-214.626-71.072-72.404z" />
<glyph unicode="&#xe90c;" glyph-name="contact2" horiz-adv-x="751" d="M0 955.637v-1011.953h750.933v781.176l-224.767 230.776h-526.167zM46.933 907.449h445.867v-216.847h211.2v-698.729h-657.067v915.576zM539.733 873.566l131.267-134.776h-131.267v134.776zM129.067 654.46v-48.188h269.867v48.188h-269.867zM129.067 521.943v-48.188h492.8v48.188h-492.8zM129.067 389.425v-48.188h492.8v48.188h-492.8zM129.067 256.907v-48.188h492.8v48.188h-492.8zM129.067 124.39v-48.188h492.8v48.188h-492.8z" />
<glyph unicode="&#xe90d;" glyph-name="contact3" horiz-adv-x="512" d="M256 960c-133.908 0-244.185-114.688-244.185-253.952 0-22.528 17.723-40.96 39.385-40.96s39.385 18.432 39.385 40.96c0 94.208 72.862 172.032 165.415 172.032 90.585 0 167.385-79.872 167.385-176.128 0-92.16-31.508-114.688-78.769-149.504-9.846-6.144-17.723-14.336-27.569-20.48-96.492-75.776-137.846-196.608-122.092-348.16 1.969-20.48 19.692-36.864 39.385-36.864 1.969 0 1.969 0 3.938 0 21.662 2.048 37.415 22.528 35.446 45.056-13.785 122.88 17.723 215.040 92.554 274.432 7.877 6.144 15.754 12.288 25.6 18.432 49.231 36.864 112.246 81.92 112.246 217.088-3.938 143.36-114.215 258.048-248.123 258.048zM315.077 17.92c0-45.243-35.266-81.92-78.769-81.92s-78.769 36.677-78.769 81.92c0 45.243 35.266 81.92 78.769 81.92s78.769-36.677 78.769-81.92z" />
<glyph unicode="&#xe90e;" glyph-name="contact4" d="M1024 934.4c0 14.141-11.459 25.6-25.6 25.6h-779.284c-14.141 0-25.6-11.459-25.6-25.6v-281.6h-167.916c-14.141 0-25.6-11.459-25.6-25.6v-568.32c0-67.758 54.886-122.88 122.358-122.88h779.284c67.471 0 122.358 55.122 122.358 122.88 0 0.297-0.072 0.563-0.082 0.85 0.010 0.287 0.082 0.563 0.082 0.85v873.82zM122.358-12.8c-39.24 0-71.158 32.164-71.158 71.68v542.72h142.316v-541.010c0-0.297 0.072-0.563 0.082-0.85-0.010-0.287-0.082-0.563-0.082-0.85 0-39.526-31.918-71.69-71.158-71.69zM901.642-12.8h-680.1c14.52 20.204 23.173 44.913 23.173 71.68 0 0.297-0.072 0.563-0.082 0.85 0.010 0.287 0.082 0.563 0.082 0.85v848.22h728.084v-848.21c0-0.297 0.072-0.563 0.082-0.85-0.010-0.297-0.082-0.563-0.082-0.86 0-39.516-31.918-71.68-71.158-71.68zM840.684 403.343h-470.313c-14.141 0-25.6-11.459-25.6-25.6s11.459-25.6 25.6-25.6h470.303c14.141 0 25.6 11.459 25.6 25.6s-11.448 25.6-25.59 25.6zM745.083 146.237h-374.712c-14.141 0-25.6-11.459-25.6-25.6s11.459-25.6 25.6-25.6h374.702c14.141 0 25.6 11.459 25.6 25.6s-11.448 25.6-25.59 25.6zM840.684 274.79h-470.313c-14.141 0-25.6-11.459-25.6-25.6s11.459-25.6 25.6-25.6h470.303c14.141 0 25.6 11.459 25.6 25.6s-11.448 25.6-25.59 25.6zM370.371 504.32h256c14.141 0 25.6 11.459 25.6 25.6v256c0 14.141-11.459 25.6-25.6 25.6h-256c-14.141 0-25.6-11.459-25.6-25.6v-256c0-14.141 11.469-25.6 25.6-25.6zM395.971 760.32h204.8v-204.8h-204.8v204.8zM840.684 682.967h-117.053c-14.141 0-25.6-11.459-25.6-25.6s11.459-25.6 25.6-25.6h117.053c14.141 0 25.6 11.459 25.6 25.6s-11.459 25.6-25.6 25.6zM840.684 811.52h-117.053c-14.141 0-25.6-11.459-25.6-25.6s11.459-25.6 25.6-25.6h117.053c14.141 0 25.6 11.459 25.6 25.6s-11.459 25.6-25.6 25.6z" />
<glyph unicode="&#xe90f;" glyph-name="down" d="M567.57 20.852l328.789 328.789-55.57 55.57-289.52-289.52v775.757h-78.539v-775.757l-289.52 289.52-55.57-55.57 384.359-384.359z" />
<glyph unicode="&#xe910;" glyph-name="rss" d="M307.2 89.6c0-84.831-68.769-153.6-153.6-153.6s-153.6 68.769-153.6 153.6c0 84.831 68.769 153.6 153.6 153.6s153.6-68.769 153.6-153.6zM0 960v-186.266c462.644-0.058 837.676-375.090 837.734-837.729v-0.006h186.266c0 565.248-458.752 1024-1024 1024zM0 587.469v-186.163c256.888-0.233 465.073-208.419 465.306-465.284v-0.022h186.163c0 0.061 0 0.133 0 0.205 0 359.683-291.581 651.264-651.264 651.264-0.072 0-0.144 0-0.216 0h0.011z" />
<glyph unicode="&#xe911;" glyph-name="eye-close" horiz-adv-x="1195" d="M768.218 788.237l-107.831-107.38c-18.941 5.235-40.693 8.246-63.156 8.246-134.584 0-243.685-108.036-243.685-241.302 0-22.241 3.038-43.781 8.727-64.232l-0.402 1.695-168.143-165.895c-80.416 60.326-147.429 138.749-193.729 228.634 113.321 216.626 337.995 362.106 596.982 362.106 60.66 0 119.436-7.98 175.318-22.939l-4.691 1.069zM999.719 676.634c81.025-60.326 148.039-138.749 194.948-228.634-113.273-216.782-338.029-362.387-597.127-362.387-61.049 0-120.192 8.084-176.397 23.229l4.699-1.078 107.831 107.38c18.941-5.235 40.693-8.246 63.156-8.246 134.584 0 243.685 108.036 243.685 241.302 0 22.241-3.038 43.781-8.727 64.234l0.402-1.695 168.143 165.895zM984.489 917.333l86.508-85.662-861.426-853.004-86.508 85.662z" />
<glyph unicode="&#xe912;" glyph-name="favoris" horiz-adv-x="768" d="M0 917.333c0 23.564 19.103 42.667 42.667 42.667v0h682.667c23.564 0 42.667-19.103 42.667-42.667v0-938.667c0 0 0 0 0 0 0-23.564-19.103-42.667-42.667-42.667-8.38 0-16.195 2.416-22.788 6.589l0.175-0.103-318.72 199.168-318.72-199.168c-6.418-4.070-14.234-6.485-22.613-6.485-23.564 0-42.667 19.103-42.667 42.667 0 0 0 0 0 0v0 938.667z" />
<glyph unicode="&#xe913;" glyph-name="formation" horiz-adv-x="1195" d="M1018.459 572.789c-1.008 0-1.961-0.171-2.957-0.197-52.846 195.135-222.95 330.52-418.169 330.52-116.303 0-225.526-47.412-307.544-133.513-5.47-5.742-5.456-15.032 0.041-20.76 5.477-5.713 14.373-5.699 19.85 0.043 76.713 80.523 178.869 124.867 287.653 124.867 181.329 0 339.779-124.703 390.405-305.154-1.080-0.299-2.113-0.703-3.18-1.032-1.451-0.448-2.899-0.901-4.327-1.404-1.897-0.67-3.758-1.415-5.608-2.18-1.367-0.565-2.741-1.112-4.081-1.728-1.878-0.862-3.705-1.815-5.528-2.772-1.235-0.65-2.491-1.262-3.7-1.953-1.948-1.115-3.829-2.335-5.708-3.558-1.011-0.658-2.057-1.263-3.047-1.952-2.75-1.911-5.423-3.93-8.004-6.065-0.288-0.237-0.559-0.496-0.845-0.737-2.402-2.027-4.736-4.136-6.978-6.346-0.869-0.857-1.672-1.782-2.516-2.665-1.542-1.615-3.085-3.23-4.541-4.929-0.918-1.070-1.771-2.198-2.653-3.3-1.283-1.607-2.563-3.216-3.77-4.889-0.872-1.21-1.69-2.461-2.522-3.703-1.11-1.659-2.202-3.33-3.234-5.046-0.787-1.306-1.532-2.64-2.272-3.978-0.966-1.746-1.899-3.511-2.785-5.306-0.679-1.377-1.333-2.768-1.964-4.173-0.823-1.835-1.595-3.698-2.335-5.579-0.564-1.435-1.122-2.874-1.636-4.333-0.683-1.941-1.292-3.914-1.884-5.897-0.434-1.454-0.882-2.902-1.265-4.377-0.547-2.103-0.996-4.243-1.439-6.385-0.291-1.409-0.619-2.803-0.864-4.227-0.411-2.395-0.697-4.832-0.975-7.27-0.139-1.218-0.34-2.418-0.445-3.645-0.315-3.684-0.496-7.404-0.496-11.164 0-3.927 0.175-7.817 0.518-11.66 0.686-7.687 2.045-15.189 4.016-22.435 12.809-47.1 51.494-83.41 99.795-89.689 0.012-0.002 0.023-0.001 0.035-0.003 0.009-0.001 0.017-0.004 0.027-0.004 0.589-0.079 1.172-0.115 1.755-0.115h0.001c4.375-0.519 8.698-0.882 13.173-0.882 65.794 0 119.319 55.978 119.319 124.789s-53.525 124.789-119.319 124.789zM1018.459 352.573c-3.88 0-7.636 0.251-11.46 0.767-45.485 5.914-79.784 46.609-79.784 94.659 0 6.006 0.536 11.897 1.563 17.62 7.188 40.060 38.429 71.866 78.282 77.047 3.763 0.509 7.519 0.76 11.399 0.76 50.31 0 91.244-42.81 91.244-95.427s-40.934-95.427-91.244-95.427zM176.208 323.211c1.004 0 1.965 0.172 2.957 0.198 52.846-195.137 222.95-330.521 418.169-330.521 116.303 0 225.526 47.412 307.544 133.513 5.47 5.742 5.456 15.032-0.041 20.76-5.483 5.728-14.38 5.713-19.85-0.043-76.713-80.523-178.869-124.867-287.653-124.867-181.364 0-339.841 124.746-390.432 305.247 1.469 0.403 2.882 0.935 4.328 1.394 1.357 0.432 2.729 0.829 4.065 1.309 2.039 0.734 4.024 1.578 6.009 2.422 1.186 0.504 2.399 0.957 3.565 1.5 2.312 1.075 4.555 2.277 6.784 3.499 0.774 0.424 1.581 0.792 2.344 1.233 2.964 1.714 5.851 3.554 8.65 5.517 0.658 0.461 1.268 0.985 1.916 1.46 2.115 1.548 4.21 3.122 6.219 4.806 0.948 0.794 1.835 1.658 2.758 2.481 1.63 1.453 3.259 2.909 4.811 4.451 0.982 0.976 1.908 2.011 2.857 3.021 1.403 1.493 2.803 2.99 4.132 4.555 0.942 1.108 1.835 2.262 2.739 3.404 1.234 1.56 2.452 3.131 3.613 4.753 0.873 1.22 1.707 2.469 2.537 3.722 1.086 1.638 2.144 3.297 3.155 4.988 0.782 1.309 1.537 2.638 2.273 3.978 0.947 1.724 1.851 3.472 2.719 5.246 0.676 1.382 1.339 2.771 1.967 4.18 0.811 1.821 1.563 3.676 2.291 5.542 0.555 1.421 1.113 2.841 1.618 4.287 0.68 1.946 1.279 3.929 1.868 5.918 0.424 1.432 0.87 2.855 1.245 4.308 0.541 2.099 0.98 4.237 1.419 6.375 0.286 1.396 0.615 2.776 0.856 4.188 0.409 2.394 0.686 4.83 0.962 7.266 0.135 1.2 0.334 2.379 0.437 3.588 0.311 3.666 0.488 7.369 0.488 11.111 0 3.892-0.172 7.746-0.509 11.555-0.117 1.323-0.362 2.607-0.518 3.918-0.294 2.47-0.549 4.952-0.98 7.376-0.191 1.080-0.491 2.119-0.709 3.19-0.532 2.61-1.050 5.228-1.737 7.778-0.248 0.922-0.589 1.803-0.858 2.718-0.777 2.649-1.554 5.298-2.492 7.872-0.299 0.821-0.681 1.598-0.996 2.411-1.014 2.615-2.037 5.225-3.214 7.75-0.386 0.831-0.855 1.609-1.259 2.43-1.204 2.444-2.41 4.886-3.76 7.235-0.528 0.918-1.142 1.773-1.692 2.677-1.333 2.188-2.655 4.387-4.113 6.481-0.533 0.765-1.14 1.469-1.689 2.221-1.57 2.151-3.142 4.303-4.841 6.342-0.642 0.771-1.357 1.469-2.017 2.223-1.695 1.936-3.384 3.879-5.193 5.701-0.804 0.81-1.682 1.534-2.507 2.32-1.756 1.673-3.498 3.362-5.35 4.925-0.917 0.773-1.905 1.453-2.845 2.199-1.85 1.468-3.681 2.96-5.615 4.315-1.041 0.73-2.151 1.357-3.216 2.052-1.912 1.25-3.805 2.53-5.789 3.668-1.225 0.702-2.518 1.289-3.77 1.946-1.906 1.003-3.789 2.047-5.754 2.944-1.417 0.647-2.9 1.163-4.347 1.753-1.872 0.764-3.716 1.582-5.634 2.247-1.668 0.58-3.4 1.012-5.101 1.514-1.767 0.523-3.505 1.114-5.306 1.553-1.887 0.46-3.832 0.758-5.755 1.123-1.607 0.306-3.182 0.702-4.813 0.939-0.631 0.179-1.282 0.323-1.947 0.409-4.997 0.674-9.898 1.004-14.99 1.004-65.794 0-119.319-55.978-119.319-124.789s53.525-124.789 119.319-124.789zM176.208 543.427c3.263 0 6.443-0.179 9.603-0.538 0.617-0.172 1.247-0.301 1.899-0.38 45.457-5.785 79.742-46.416 79.742-94.509s-34.285-88.724-79.742-94.509c-0.644-0.079-1.268-0.208-1.878-0.38-3.167-0.358-6.354-0.538-9.623-0.538-50.31 0-91.244 42.81-91.244 95.427s40.934 95.427 91.244 95.427z" />
<glyph unicode="&#xe914;" glyph-name="geopoint" horiz-adv-x="768" d="M384 960c-211.977-0.251-383.758-178.683-384-398.868 0-324.383 346.252-604.232 363.185-617.717 5.982-4.799 13.325-7.415 20.883-7.415 42.656 0 383.932 317.797 383.932 625.146-0.249 220.179-172.028 398.602-384 398.854zM385.261 15.848c-71.729 62.793-317.272 296.039-317.272 545.284 0 181.285 141.483 328.246 316.011 328.246s316.011-146.961 316.011-328.246c0-243.401-238.89-481.749-314.75-545.284zM386.59 803.721c-93.422 0.009-177.65-58.44-213.407-148.091s-15.999-192.847 50.059-261.466c66.058-68.619 165.406-89.148 251.717-52.012s142.584 124.621 142.584 221.66c-0.144 132.43-103.459 239.751-230.953 239.909zM386.59 394.511c-65.922-0.009-125.358 41.232-150.591 104.492s-11.296 136.079 35.314 184.502c46.61 48.423 116.713 62.912 177.618 36.712s100.622-87.93 100.622-156.404c-0.101-93.448-72.999-169.181-162.963-169.301z" />
<glyph unicode="&#xe915;" glyph-name="hold" horiz-adv-x="1126" d="M563.2 960l535.635-353.783-204.594-572.433h-662.081l-204.594 572.433z" />
<glyph unicode="&#xe916;" glyph-name="icon-chat" d="M512 899.765c-249.503 0-451.765-202.262-451.765-451.765 0-81.257 21.427-157.425 58.918-223.244 8.074-14.173 10.562-31.461 5.619-47.935l-49.734-165.786 165.781 49.736c16.479 4.945 33.761 2.458 47.937-5.62 65.822-37.49 141.987-58.916 223.244-58.916 249.501 0 451.765 202.264 451.765 451.765 0 249.503-202.264 451.765-451.765 451.765zM0 448c0 282.77 229.23 512 512 512s512-229.23 512-512c0-282.769-229.231-512-512-512-91.985 0-178.39 24.287-253.056 66.813-0.494 0.283-0.794 0.259-0.843 0.253-0.005 0-0.007 0-0.007 0l-165.748-49.724c-45.947-13.782-88.787 29.058-75.003 75.005l49.727 165.755c0.005 0.048 0.025 0.349-0.257 0.843-42.528 74.668-66.812 161.069-66.812 253.054zM331.294 538.353c0 16.631 13.484 30.118 30.118 30.118h120.471c16.631 0 30.118-13.487 30.118-30.118s-13.487-30.118-30.118-30.118h-120.471c-16.633 0-30.118 13.487-30.118 30.118zM331.294 387.765c0 16.631 13.484 30.118 30.118 30.118h301.176c16.631 0 30.118-13.487 30.118-30.118s-13.487-30.118-30.118-30.118h-301.176c-16.633 0-30.118 13.487-30.118 30.118z" />
<glyph unicode="&#xe917;" glyph-name="icon" horiz-adv-x="1569" d="M370.261 572.2v387.168h-370.269c179.17-52.42 320.257-199.77 370.269-387.168zM0 349.814v-392.029h370.269c-179.15 53.078-320.199 202.299-370.269 392.029zM610.152 349.814v-392.029h369.608c-178.879 53.078-319.624 202.299-369.608 392.029zM1199.151-42.217h369.476v392.029c-50.001-189.668-190.666-339.055-369.476-392.029zM980.426 567.83v392.17h-370.383c179.195-53.097 320.354-202.351 370.383-392.17z" />
<glyph unicode="&#xe919;" glyph-name="in" horiz-adv-x="1081" d="M785.352 646.963c155.224 0 255.996-104.905 261.193-288.455l0.211-15.054v-380.392h-252.802v356.454c0 79.275-26.55 118.247-82.279 118.247-40.436 0-70.232-24.269-85.283-61.742-2.884-6.985-4.515-17.874-4.979-32.573l-0.139-9.276v-371.079h-252.943l0.994 256.1-0.172 355.203c-0.153 14.241-0.342 24.741-0.569 31.198l-1.235 26.713h253.925l-0.048-46.621 4.434 4.237c34.102 31.616 75.747 50.94 130.939 55.815l14.084 0.917 14.669 0.307zM299.209 632.307v-669.214h-252.802v669.214h252.802zM785.352 601.452c-77.626 0-123.327-28.668-161.133-82.807l-6.595-9.818-41.861-64.698-0.048 142.696h-161.223l0.522-64.806 0.023-221.923-0.999-291.489h161.678l0.048 325.566c0 16.665 0.994 30.619 3.506 42.549l2.177 8.579 2.796 7.885c21.39 53.258 66.608 90.089 127.433 90.089 82.112 0 124.465-57.534 127.602-152.219l0.188-11.539-0.013-310.91h161.792v334.849c0 158.3-72.781 246.861-192.203 257.014l-11.702 0.738-11.988 0.246zM253.668 586.824h-161.792v-578.219h161.792v578.219zM174.167 932.968c80.969 0 137.020-54.174 138.69-130.477 0-71.898-53.172-125.906-129.922-130.282l-11.455-0.287c-79.973 0-137.347 55.991-137.347 130.569 0 75.476 58.354 130.477 140.034 130.477zM174.167 887.457c-57.127 0-94.523-35.247-94.523-84.966 0-46.458 32.783-81.031 82.828-84.729l10.32-0.328c57.446 0 94.553 35.6 94.559 84.558-1.119 50.94-36.84 85.466-93.185 85.466z" />
<glyph unicode="&#xe91a;" glyph-name="left" horiz-adv-x="1186" d="M75.61 522.817l415.313 415.313 70.194-70.194-365.709-365.709h979.904v-99.207h-979.904l365.709-365.709-70.194-70.194-485.506 485.506z" />
<glyph unicode="&#xe91c;" glyph-name="mail" horiz-adv-x="1463" d="M1462.857 798.781v21.574c0 81.231-70.709 139.664-157.618 139.664h-1147.62c-86.912 0-157.618-58.433-157.618-139.664v-743.556c0-81.226 70.706-140.562 157.618-140.562h1147.629c86.906 0 157.61 59.336 157.61 140.562v721.824c0 0.051 0 0.104 0 0.158zM157.618 887.559h1147.62c39.646 0 80.802-30.146 80.802-67.203l-582.891-357.666c-38.206-23.807-105.229-23.804-143.43-0.003l-581.919 357.653c0 37.073 40.169 67.22 79.818 67.22zM157.618 9.604c-39.649 0-79.818 30.144-79.818 67.195v647.258l534.373-328.028c33.44-20.837 76.341-31.252 119.258-31.252 42.906 0 85.826 10.417 119.264 31.252l535.348 328.028v-647.258c0-37.052-41.153-67.195-80.796-67.195h-1147.629z" />
<glyph unicode="&#xe91d;" glyph-name="phone" horiz-adv-x="1078" d="M1016.322 202.268l-108.776 108.776c-24.922 24.924-58.092 37.28-91.020 33.898-28.4-2.918-53.412-17.888-68.618-41.068l-38.958-59.382c-45.078 9.506-162.238 41.206-247.276 126.242-85.048 85.050-116.746 202.232-126.242 247.276l59.382 38.958c23.182 15.21 38.15 40.22 41.070 68.62 3.384 32.92-8.974 66.094-33.898 91.020l-108.778 108.776c-33.546 33.544-82.198 43.922-121.070 25.826-73.234-34.084-122.6-103.988-139.006-196.832-15.010-84.948-2.576-183.090 35.958-283.82 40.624-106.19 108.43-208.654 196.090-296.316 87.658-87.66 190.124-155.468 296.314-196.088 73-27.924 144.63-42.14 210.876-42.14 25.162 0 49.558 2.054 72.94 6.184 92.844 16.404 162.748 65.77 196.834 139.002 18.096 38.876 7.718 87.528-25.822 121.068zM986.246 107.218c-32.488-69.798-100.406-95.244-151.662-104.302-160.484-28.354-366.882 56.008-525.804 214.928-158.922 158.924-243.286 365.316-214.928 525.808 9.056 51.254 34.502 119.17 104.302 151.658 4.434 2.064 9.364 3.056 14.502 3.056 12.526 0 26.27-5.902 36.946-16.576l108.78-108.778c11.576-11.576 17.616-26.948 16.16-41.118-0.728-7.080-3.668-16.882-13.554-23.366l-76.478-50.176c-9.916-6.508-15.222-18.124-13.646-29.878 0.976-7.27 25.292-179.418 147.21-301.332 121.916-121.916 294.064-146.234 301.332-147.212 11.746-1.576 23.37 3.726 29.878 13.644l50.178 76.48c6.484 9.886 16.286 12.828 23.366 13.554 14.18 1.462 29.542-4.586 41.118-16.16l108.776-108.776c15.054-15.056 20.616-36.214 13.524-51.454z" />
<glyph unicode="&#xe91e;" glyph-name="pin" horiz-adv-x="768" d="M384 960c-211.977-0.251-383.758-178.683-384-398.868 0-324.383 346.252-604.232 363.185-617.717 5.982-4.799 13.325-7.415 20.883-7.415 42.656 0 383.932 317.797 383.932 625.146-0.249 220.179-172.028 398.602-384 398.854zM385.261 15.848c-71.729 62.793-317.272 296.039-317.272 545.284 0 181.285 141.483 328.246 316.011 328.246s316.011-146.961 316.011-328.246c0-243.401-238.89-481.749-314.75-545.284zM386.59 803.721c-93.422 0.009-177.65-58.44-213.407-148.091s-15.999-192.847 50.059-261.466c66.058-68.619 165.406-89.148 251.717-52.012s142.584 124.621 142.584 221.66c-0.144 132.43-103.459 239.751-230.953 239.909zM386.59 394.511c-65.922-0.009-125.358 41.232-150.591 104.492s-11.296 136.079 35.314 184.502c46.61 48.423 116.713 62.912 177.618 36.712s100.622-87.93 100.622-156.404c-0.101-93.448-72.999-169.181-162.963-169.301z" />
<glyph unicode="&#xe91f;" glyph-name="play" horiz-adv-x="768" d="M768 448l-768-512v1024z" />
<glyph unicode="&#xe920;" glyph-name="plus" horiz-adv-x="931" d="M0 494.545h930.909v-93.091h-930.909v93.091zM512 913.455v-930.909h-93.091v930.909h93.091z" />
<glyph unicode="&#xe921;" glyph-name="quote" horiz-adv-x="1308" d="M1005.037-64c158.496 0 285.294 111.709 285.294 283.927 0 148.945-95.098 237.382-208.31 260.655h-163.025c18.114 195.491 153.968 335.127 389.448 372.364v107.055c-393.977-37.236-606.815-297.891-606.815-637.673 0-223.418 108.683-386.327 303.407-386.327zM303.407-64c158.496 0 285.294 111.709 285.294 283.927 0 148.945-95.098 237.382-208.31 260.655h-163.025c18.114 195.491 153.968 335.127 389.448 372.364v107.055c-393.977-37.236-606.815-297.891-606.815-637.673 0-223.418 108.683-386.327 303.407-386.327z" />
<glyph unicode="&#xe922;" glyph-name="recurrent" horiz-adv-x="1195" d="M1018.459 572.789c-1.008 0-1.961-0.171-2.957-0.197-52.846 195.135-222.95 330.52-418.169 330.52-116.303 0-225.526-47.412-307.544-133.513-5.47-5.742-5.456-15.032 0.041-20.76 5.477-5.713 14.373-5.699 19.85 0.043 76.713 80.523 178.869 124.867 287.653 124.867 181.329 0 339.779-124.703 390.405-305.154-1.080-0.299-2.113-0.703-3.18-1.032-1.451-0.448-2.899-0.901-4.327-1.404-1.897-0.67-3.758-1.415-5.608-2.18-1.367-0.565-2.741-1.112-4.081-1.728-1.878-0.862-3.705-1.815-5.528-2.772-1.235-0.65-2.491-1.262-3.7-1.953-1.948-1.115-3.829-2.335-5.708-3.558-1.011-0.658-2.057-1.263-3.047-1.952-2.75-1.911-5.423-3.93-8.004-6.065-0.288-0.237-0.559-0.496-0.845-0.737-2.402-2.027-4.736-4.136-6.978-6.346-0.869-0.857-1.672-1.782-2.516-2.665-1.542-1.615-3.085-3.23-4.541-4.929-0.918-1.070-1.771-2.198-2.653-3.3-1.283-1.607-2.563-3.216-3.77-4.889-0.872-1.21-1.69-2.461-2.522-3.703-1.11-1.659-2.202-3.33-3.234-5.046-0.787-1.306-1.532-2.64-2.272-3.978-0.966-1.746-1.899-3.511-2.785-5.306-0.679-1.377-1.333-2.768-1.964-4.173-0.823-1.835-1.595-3.698-2.335-5.579-0.564-1.435-1.122-2.874-1.636-4.333-0.683-1.941-1.292-3.914-1.884-5.897-0.434-1.454-0.882-2.902-1.265-4.377-0.547-2.103-0.996-4.243-1.439-6.385-0.291-1.409-0.619-2.803-0.864-4.227-0.411-2.395-0.697-4.832-0.975-7.27-0.139-1.218-0.34-2.418-0.445-3.645-0.315-3.684-0.496-7.404-0.496-11.164 0-3.927 0.175-7.817 0.518-11.66 0.686-7.687 2.045-15.189 4.016-22.435 12.809-47.1 51.494-83.41 99.795-89.689 0.012-0.002 0.023-0.001 0.035-0.003 0.009-0.001 0.017-0.004 0.027-0.004 0.589-0.079 1.172-0.115 1.755-0.115h0.001c4.375-0.519 8.698-0.882 13.173-0.882 65.794 0 119.319 55.978 119.319 124.789s-53.525 124.789-119.319 124.789zM1018.459 352.573c-3.88 0-7.636 0.251-11.46 0.767-45.485 5.914-79.784 46.609-79.784 94.659 0 6.006 0.536 11.897 1.563 17.62 7.188 40.060 38.429 71.866 78.282 77.047 3.763 0.509 7.519 0.76 11.399 0.76 50.31 0 91.244-42.81 91.244-95.427s-40.934-95.427-91.244-95.427zM176.208 323.211c1.004 0 1.965 0.172 2.957 0.198 52.846-195.137 222.95-330.521 418.169-330.521 116.303 0 225.526 47.412 307.544 133.513 5.47 5.742 5.456 15.032-0.041 20.76-5.483 5.728-14.38 5.713-19.85-0.043-76.713-80.523-178.869-124.867-287.653-124.867-181.364 0-339.841 124.746-390.432 305.247 1.469 0.403 2.882 0.935 4.328 1.394 1.357 0.432 2.729 0.829 4.065 1.309 2.039 0.734 4.024 1.578 6.009 2.422 1.186 0.504 2.399 0.957 3.565 1.5 2.312 1.075 4.555 2.277 6.784 3.499 0.774 0.424 1.581 0.792 2.344 1.233 2.964 1.714 5.851 3.554 8.65 5.517 0.658 0.461 1.268 0.985 1.916 1.46 2.115 1.548 4.21 3.122 6.219 4.806 0.948 0.794 1.835 1.658 2.758 2.481 1.63 1.453 3.259 2.909 4.811 4.451 0.982 0.976 1.908 2.011 2.857 3.021 1.403 1.493 2.803 2.99 4.132 4.555 0.942 1.108 1.835 2.262 2.739 3.404 1.234 1.56 2.452 3.131 3.613 4.753 0.873 1.22 1.707 2.469 2.537 3.722 1.086 1.638 2.144 3.297 3.155 4.988 0.782 1.309 1.537 2.638 2.273 3.978 0.947 1.724 1.851 3.472 2.719 5.246 0.676 1.382 1.339 2.771 1.967 4.18 0.811 1.821 1.563 3.676 2.291 5.542 0.555 1.421 1.113 2.841 1.618 4.287 0.68 1.946 1.279 3.929 1.868 5.918 0.424 1.432 0.87 2.855 1.245 4.308 0.541 2.099 0.98 4.237 1.419 6.375 0.286 1.396 0.615 2.776 0.856 4.188 0.409 2.394 0.686 4.83 0.962 7.266 0.135 1.2 0.334 2.379 0.437 3.588 0.311 3.666 0.488 7.369 0.488 11.111 0 3.892-0.172 7.746-0.509 11.555-0.117 1.323-0.362 2.607-0.518 3.918-0.294 2.47-0.549 4.952-0.98 7.376-0.191 1.080-0.491 2.119-0.709 3.19-0.532 2.61-1.050 5.228-1.737 7.778-0.248 0.922-0.589 1.803-0.858 2.718-0.777 2.649-1.554 5.298-2.492 7.872-0.299 0.821-0.681 1.598-0.996 2.411-1.014 2.615-2.037 5.225-3.214 7.75-0.386 0.831-0.855 1.609-1.259 2.43-1.204 2.444-2.41 4.886-3.76 7.235-0.528 0.918-1.142 1.773-1.692 2.677-1.333 2.188-2.655 4.387-4.113 6.481-0.533 0.765-1.14 1.469-1.689 2.221-1.57 2.151-3.142 4.303-4.841 6.342-0.642 0.771-1.357 1.469-2.017 2.223-1.695 1.936-3.384 3.879-5.193 5.701-0.804 0.81-1.682 1.534-2.507 2.32-1.756 1.673-3.498 3.362-5.35 4.925-0.917 0.773-1.905 1.453-2.845 2.199-1.85 1.468-3.681 2.96-5.615 4.315-1.041 0.73-2.151 1.357-3.216 2.052-1.912 1.25-3.805 2.53-5.789 3.668-1.225 0.702-2.518 1.289-3.77 1.946-1.906 1.003-3.789 2.047-5.754 2.944-1.417 0.647-2.9 1.163-4.347 1.753-1.872 0.764-3.716 1.582-5.634 2.247-1.668 0.58-3.4 1.012-5.101 1.514-1.767 0.523-3.505 1.114-5.306 1.553-1.887 0.46-3.832 0.758-5.755 1.123-1.607 0.306-3.182 0.702-4.813 0.939-0.631 0.179-1.282 0.323-1.947 0.409-4.997 0.674-9.898 1.004-14.99 1.004-65.794 0-119.319-55.978-119.319-124.789s53.525-124.789 119.319-124.789zM176.208 543.427c3.263 0 6.443-0.179 9.603-0.538 0.617-0.172 1.247-0.301 1.899-0.38 45.457-5.785 79.742-46.416 79.742-94.509s-34.285-88.724-79.742-94.509c-0.644-0.079-1.268-0.208-1.878-0.38-3.167-0.358-6.354-0.538-9.623-0.538-50.31 0-91.244 42.81-91.244 95.427s40.934 95.427 91.244 95.427z" />
<glyph unicode="&#xe923;" glyph-name="right" d="M961.539 509.805l-343.084 343.084-57.986-57.986 302.108-302.108h-809.486v-81.954h809.486l-302.108-302.108 57.986-57.986 401.071 401.071z" />
<glyph unicode="&#xe924;" glyph-name="round" d="M1024 448c0-282.77-229.23-512-512-512s-512 229.23-512 512c0 282.77 229.23 512 512 512s512-229.23 512-512z" />
<glyph unicode="&#xe925;" glyph-name="search" d="M1016.467 21.357l-248.283 249.901c61.715 74.699 88.191 153.226 88.191 257.742 0 237.654-192.085 431-428.185 431-236.106 0-428.19-193.346-428.19-431 0-237.638 192.085-430.968 428.19-430.968 103.832 0 187.867 31.444 262.081 93.562l248.288-249.906c7.721-7.777 29.116-5.688 39.236-5.688s20.246 3.886 27.973 11.662c15.447 15.548 26.151 58.147 10.699 73.695zM110.262 529.001c0 176.457 142.621 320.015 317.928 320.015 175.302 0 317.918-143.558 317.918-320.015 0-176.442-142.616-319.985-317.918-319.985-175.307 0-317.928 143.543-317.928 319.985z" />
<glyph unicode="&#xe926;" glyph-name="up" horiz-adv-x="1707" d="M1706.667-25.733l-849.577 934.649-857.090-942.799c529.968 329.647 1179.724 333.205 1706.667 8.149z" />
<glyph unicode="&#xe927;" glyph-name="eye" horiz-adv-x="1575" d="M788.307-24.584c77.666 0 151.237 9.295 220.554 27.963 69.317 18.747 133.199 43.323 191.646 73.807 58.526 30.562 110.907 63.961 157.145 100.588 46.159 36.628 85.543 73.492 118.075 110.671 32.453 37.179 57.265 71.522 74.201 103.030s25.442 57.029 25.442 76.485c0 19.535-8.507 44.977-25.442 76.249s-41.748 65.536-74.201 102.715c-32.532 37.258-71.995 74.201-118.39 110.986-46.474 36.785-98.934 70.42-157.381 100.903-58.526 30.484-122.329 54.981-191.409 73.413-69.159 18.511-142.572 27.806-220.239 27.806-76.879 0-149.819-9.295-218.663-27.806-68.923-18.432-132.647-42.929-191.173-73.413-58.447-30.484-110.986-64.118-157.617-100.903s-86.41-73.728-119.335-110.986c-32.926-37.179-58.053-71.444-75.461-102.715-17.329-31.271-26.073-56.714-26.073-76.249 0-19.456 8.743-44.977 26.073-76.485 17.408-31.508 42.535-65.851 75.461-103.030s72.704-74.043 119.335-110.671 99.17-70.026 157.617-100.588c58.526-30.484 122.25-55.060 191.173-73.807 68.844-18.668 141.785-27.963 218.663-27.963zM788.307 150.363c-59.707 0-113.822 14.415-162.265 43.323-48.443 28.83-87.040 67.348-115.633 115.476-28.672 48.207-43.166 101.14-43.559 158.799 0 58.998 14.336 112.404 42.929 160.374 28.672 47.97 67.269 86.174 115.948 114.609s102.873 42.693 162.58 42.693c58.919 0 112.64-14.257 161.319-42.693s87.434-66.639 116.263-114.609 43.244-101.376 43.244-160.374c0-43.481-8.271-84.283-24.812-122.486-16.62-38.203-39.621-71.916-69.002-101.218-29.46-29.302-63.488-52.224-102.164-68.923-38.676-16.62-80.266-24.97-124.849-24.97zM788.307 350.988c32.295 0 60.101 11.422 83.417 34.422 23.316 22.922 34.974 50.491 34.974 82.55 0 32.138-11.658 59.707-34.974 82.629-23.316 23.001-51.121 34.501-83.417 34.501-32.768 0-60.731-11.5-84.047-34.501-23.316-22.922-34.974-50.491-34.974-82.629 0-32.059 11.658-59.628 34.974-82.55 23.316-23.001 51.279-34.422 84.047-34.422z" />
<glyph unicode="&#xe929;" glyph-name="eye1" horiz-adv-x="1575" d="M788.322-24.615c77.666 0 151.237 9.295 220.554 27.963 69.317 18.747 133.12 43.323 191.646 73.807 59.898 31.080 111.362 64.475 159.261 102.195l-2.116-1.607c43.502 34.141 82.117 70.408 117.308 109.797l0.767 0.873c32.453 37.179 57.265 71.522 74.201 103.030s25.442 57.029 25.442 76.485c0 19.535-8.507 44.977-25.442 76.249s-41.748 65.536-74.201 102.715c-36.032 40.441-74.753 76.839-116.462 109.605l-1.928 1.46c-45.855 36.202-97.397 69.675-151.923 98.222l-5.458 2.602c-54.678 28.921-118.305 54.003-184.872 71.915l-6.537 1.498c-64.658 17.668-138.897 27.819-215.507 27.819-1.663 0-3.326-0.005-4.987-0.014l0.255 0.001c-76.879 0-149.819-9.295-218.663-27.806-73.025-19.444-136.57-44.523-196.311-75.869l5.138 2.456c-58.447-30.484-111.065-64.118-157.617-100.825-43.97-34.329-82.99-70.727-118.611-110.248l-0.725-0.817c-33.004-37.179-58.053-71.444-75.54-102.715-17.329-31.271-26.073-56.714-26.073-76.249 0-19.456 8.665-44.898 25.994-76.406 17.487-31.508 42.535-65.93 75.54-103.109 32.926-37.179 72.704-74.043 119.335-110.671s99.17-70.026 157.538-100.588c58.604-30.484 122.329-55.060 191.252-73.807 68.844-18.668 141.785-27.963 218.663-27.963zM788.244 150.331c-1.183-0.016-2.579-0.025-3.978-0.025-58.395 0-113.027 16.111-159.694 44.132l1.407-0.783c-47.952 28.584-86.942 67.549-114.729 113.988l-0.825 1.488c-27.366 45.208-43.56 99.829-43.56 158.232 0 0.199 0 0.399 0.001 0.598v-0.031c-0.014 1.102-0.022 2.404-0.022 3.707 0 57.803 15.965 111.878 43.725 158.055l-0.774-1.388c28.653 47.742 67.799 86.46 114.429 113.786l1.519 0.823c45.517 26.852 100.29 42.716 158.768 42.716 1.34 0 2.678-0.008 4.015-0.025l-0.203 0.002c58.919 0 112.64-14.178 161.319-42.693 48.679-28.357 87.434-66.639 116.263-114.609s43.244-101.376 43.244-160.374c0.004-0.596 0.007-1.301 0.007-2.006 0-43.549-9.132-84.964-25.585-122.437l0.766 1.957c-33.996-76.682-94.229-136.583-169.059-169.32l-2.107-0.822c-36.127-15.791-78.225-24.979-122.469-24.979-0.837 0-1.673 0.003-2.508 0.010l0.128-0.001zM788.322 350.956c32.295 0 60.101 11.422 83.417 34.422 23.316 22.922 34.974 50.491 34.974 82.55 0 32.138-11.658 59.707-34.974 82.708-20.834 21.256-49.843 34.433-81.93 34.433-0.551 0-1.1-0.004-1.649-0.012l0.083 0.001c-32.689 0-60.652-11.5-83.968-34.501-21.563-20.42-34.982-49.252-34.982-81.219 0-0.496 0.003-0.991 0.010-1.485l-0.001 0.075c0-32.059 11.658-59.628 34.974-82.55 23.316-23.001 51.2-34.422 84.047-34.422z" />
<glyph unicode="&#xe92a;" glyph-name="print" d="M840.631 747.966h-20.739v187.565c0 13.512-10.957 24.469-24.471 24.469h-566.817c-13.522 0-24.469-10.957-24.469-24.469v-187.563h-20.752c-80.939 0-146.803-65.855-146.803-146.803v-303.093c0-80.949 65.864-146.8 146.803-146.8h20.752v-190.813c0-13.514 10.946-24.469 24.469-24.469h566.817c13.514 0 24.469 10.957 24.469 24.469v190.813h20.739c80.939 0 146.803 65.851 146.803 146.8v303.091c0.002 80.949-65.862 146.803-146.8 146.803zM253.070 911.064h517.886v-163.098h-517.886v163.098zM770.956-15.081h-517.886v301.768h517.886v-301.768zM938.502 298.072c0-53.97-43.904-97.869-97.871-97.869h-20.739v86.483h52.917c13.522 0 24.467 10.955 24.467 24.469 0 13.51-10.944 24.467-24.467 24.467h-714.345c-13.512 0-24.469-10.957-24.469-24.467 0-13.516 10.957-24.469 24.469-24.469h45.671v-86.483h-20.752c-53.966 0-97.869 43.904-97.869 97.869v303.091c0 53.966 43.904 97.867 97.869 97.867h657.249c53.963 0 97.867-43.904 97.867-97.867v-303.091h0.004zM795.42 601.464c-18.428 0-33.392-14.957-33.392-33.392s14.957-33.392 33.392-33.392c18.437 0 33.396 14.955 33.396 33.392-0.004 18.435-14.959 33.392-33.396 33.392zM310.153 202.079h403.709c13.514 0 24.469 10.953 24.469 24.469 0 13.51-10.957 24.467-24.469 24.467h-403.709c-13.512 0-24.469-10.957-24.469-24.467 0-13.516 10.957-24.469 24.469-24.469zM310.153 111.331h403.709c13.514 0 24.469 10.961 24.469 24.469 0 13.514-10.957 24.467-24.469 24.467h-403.709c-13.512 0-24.469-10.953-24.469-24.467s10.957-24.469 24.469-24.469z" />
</font>
</defs>
</svg>
